ffmpeg version 4.4.2-0ubuntu0.22.04.1 Copyright (c) 2000-2021 the FFmpeg developers
  built with gcc 11 (Ubuntu 11.2.0-19ubuntu1)
  configuration: --prefix=/usr --extra-version=0ubuntu0.22.04.1 --toolchain=hardened --libdir=/usr/lib/x86_64-linux-gnu --incdir=/usr/include/x86_64-linux-gnu --arch=amd64 --enable-gpl --disable-stripping --enable-gnutls --enable-ladspa --enable-libaom --enable-libass --enable-libbluray --enable-libbs2b --enable-libcaca --enable-libcdio --enable-libcodec2 --enable-libdav1d --enable-libflite --enable-libfontconfig --enable-libfreetype --enable-libfribidi --enable-libgme --enable-libgsm --enable-libjack --enable-libmp3lame --enable-libmysofa --enable-libopenjpeg --enable-libopenmpt --enable-libopus --enable-libpulse --enable-librabbitmq --enable-librubberband --enable-libshine --enable-libsnappy --enable-libsoxr --enable-libspeex --enable-libsrt --enable-libssh --enable-libtheora --enable-libtwolame --enable-libvidstab --enable-libvorbis --enable-libvpx --enable-libwebp --enable-libx265 --enable-libxml2 --enable-libxvid --enable-libzimg --enable-libzmq --enable-libzvbi --enable-lv2 --enable-omx --enable-openal --enable-opencl --enable-opengl --enable-sdl2 --enable-pocketsphinx --enable-librsvg --enable-libmfx --enable-libdc1394 --enable-libdrm --enable-libiec61883 --enable-chromaprint --enable-frei0r --enable-libx264 --enable-shared
  libavutil      56. 70.100 / 56. 70.100
  libavcodec     58.134.100 / 58.134.100
  libavformat    58. 76.100 / 58. 76.100
  libavdevice    58. 13.100 / 58. 13.100
  libavfilter     7.110.100 /  7.110.100
  libswscale      5.  9.100 /  5.  9.100
  libswresample   3.  9.100 /  3.  9.100
  libpostproc    55.  9.100 / 55.  9.100
Input #0, flv, from '/storage/32426326/20250626/32426326-20250626-123601-929.flv':
  Metadata:
    fps             : 60
    displayWidth    : 2560
    profile         : 
    Rawdata         : 
    level           : 
    encoder         : obs-output module (libobs version 31.0.2)
    displayHeight   : 1440
    cdn_ip          : 192.168.252.6
    Title           : 技术主播没有GG
    Artist          : 蓝音BuBuLine (32426326)
    Comment         : mikufans直播间 32426326 的直播录像
                    : 主播名: 蓝音BuBuLine
                    : 直播标题: 技术主播没有GG
                    : 直播分区: 单机游戏·主机游戏
                    : 录制时间: 2025-06-26T12:36:01.9402414+00:00
                    : 直播服务器:
                    : d1--ov-gotcha07b.bilivideo.com [156.59.188.246]
                    : 
                    : 使用 mikufans录播姬 录制 https://rec.danmuji.org
                    : 录播姬版本: 2.17.0
    RecordedBy      : BililiveRecorder mikufans录播姬
    RecordedFrom    : d1--ov-gotcha07b.bilivideo.com
    StreamServers   : d1--ov-gotcha07b.bilivideo.com [156.59.188.246]
    RecorderVersion : 2.17.0+Branch.tags-v2.17.0.Sha.79d60d3b69038634787f3d53faa1124d513cf64a
    StartTime       : Thu, 26 Jun 2025 12:36:01 +0000
    RoomId          : 32426326
    ShortId         : 0
    Name            : 蓝音BuBuLine
    StreamTitle     : 技术主播没有GG
    AreaNameParent  : 单机游戏
    AreaNameChild   : 主机游戏
  Duration: 06:42:52.71, start: 0.035000, bitrate: 8733 kb/s
  Stream #0:0: Video: h264 (High), yuv420p(tv, bt709, progressive), 2560x1440 [SAR 1:1 DAR 16:9], 10240 kb/s, 60 fps, 60 tbr, 1k tbn, 120 tbc
  Stream #0:1: Audio: aac (LC), 48000 Hz, stereo, fltp, 196 kb/s
Stream mapping:
  Stream #0:0 -> #0:0 (h264 (native) -> png (native))
Press [q] to stop, [?] for help
Output #0, image2, to '/storage/32426326/20250626/32426326-20250626-123601-929.all.thumb.png':
  Metadata:
    fps             : 60
    displayWidth    : 2560
    profile         : 
    Rawdata         : 
    level           : 
    AreaNameChild   : 主机游戏
    displayHeight   : 1440
    cdn_ip          : 192.168.252.6
    Title           : 技术主播没有GG
    Artist          : 蓝音BuBuLine (32426326)
    Comment         : mikufans直播间 32426326 的直播录像
                    : 主播名: 蓝音BuBuLine
                    : 直播标题: 技术主播没有GG
                    : 直播分区: 单机游戏·主机游戏
                    : 录制时间: 2025-06-26T12:36:01.9402414+00:00
                    : 直播服务器:
                    : d1--ov-gotcha07b.bilivideo.com [156.59.188.246]
                    : 
                    : 使用 mikufans录播姬 录制 https://rec.danmuji.org
                    : 录播姬版本: 2.17.0
    RecordedBy      : BililiveRecorder mikufans录播姬
    RecordedFrom    : d1--ov-gotcha07b.bilivideo.com
    StreamServers   : d1--ov-gotcha07b.bilivideo.com [156.59.188.246]
    RecorderVersion : 2.17.0+Branch.tags-v2.17.0.Sha.79d60d3b69038634787f3d53faa1124d513cf64a
    StartTime       : Thu, 26 Jun 2025 12:36:01 +0000
    RoomId          : 32426326
    ShortId         : 0
    Name            : 蓝音BuBuLine
    StreamTitle     : 技术主播没有GG
    AreaNameParent  : 单机游戏
    encoder         : Lavf58.76.100
  Stream #0:0: Video: png, rgb24(pc, gbr/bt709/bt709, progressive), 2560x1440 [SAR 1:1 DAR 16:9], q=2-31, 200 kb/s, 60 fps, 60 tbn
    Metadata:
      encoder         : Lavc58.134.100 png
frame=    1 fps=0.0 q=0.0 size=N/A time=00:00:00.00 bitrate=N/A speed=   0x    frame=    1 fps=0.0 q=-0.0 Lsize=N/A time=00:00:00.01 bitrate=N/A speed=0.0257x    
video:3341kB audio:0kB subtitle:0kB other streams:0kB global headers:0kB muxing overhead: unknown
ffmpeg version 4.4.2-0ubuntu0.22.04.1 Copyright (c) 2000-2021 the FFmpeg developers
  built with gcc 11 (Ubuntu 11.2.0-19ubuntu1)
  configuration: --prefix=/usr --extra-version=0ubuntu0.22.04.1 --toolchain=hardened --libdir=/usr/lib/x86_64-linux-gnu --incdir=/usr/include/x86_64-linux-gnu --arch=amd64 --enable-gpl --disable-stripping --enable-gnutls --enable-ladspa --enable-libaom --enable-libass --enable-libbluray --enable-libbs2b --enable-libcaca --enable-libcdio --enable-libcodec2 --enable-libdav1d --enable-libflite --enable-libfontconfig --enable-libfreetype --enable-libfribidi --enable-libgme --enable-libgsm --enable-libjack --enable-libmp3lame --enable-libmysofa --enable-libopenjpeg --enable-libopenmpt --enable-libopus --enable-libpulse --enable-librabbitmq --enable-librubberband --enable-libshine --enable-libsnappy --enable-libsoxr --enable-libspeex --enable-libsrt --enable-libssh --enable-libtheora --enable-libtwolame --enable-libvidstab --enable-libvorbis --enable-libvpx --enable-libwebp --enable-libx265 --enable-libxml2 --enable-libxvid --enable-libzimg --enable-libzmq --enable-libzvbi --enable-lv2 --enable-omx --enable-openal --enable-opencl --enable-opengl --enable-sdl2 --enable-pocketsphinx --enable-librsvg --enable-libmfx --enable-libdc1394 --enable-libdrm --enable-libiec61883 --enable-chromaprint --enable-frei0r --enable-libx264 --enable-shared
  libavutil      56. 70.100 / 56. 70.100
  libavcodec     58.134.100 / 58.134.100
  libavformat    58. 76.100 / 58. 76.100
  libavdevice    58. 13.100 / 58. 13.100
  libavfilter     7.110.100 /  7.110.100
  libswscale      5.  9.100 /  5.  9.100
  libswresample   3.  9.100 /  3.  9.100
  libpostproc    55.  9.100 / 55.  9.100
[flv @ 0x5648b559afc0] Auto-inserting h264_mp4toannexb bitstream filter
Input #0, concat, from '/storage/32426326/20250626/32426326-20250626-123601-929.all.concat.txt':
  Duration: N/A, start: 0.000000, bitrate: 10436 kb/s
  Stream #0:0: Video: h264 (High), yuv420p(tv, bt709, progressive), 2560x1440 [SAR 1:1 DAR 16:9], 10240 kb/s, 60 fps, 60 tbr, 1k tbn, 120 tbc
  Stream #0:1: Audio: aac (LC), 48000 Hz, stereo, fltp, 196 kb/s
Output #0, flv, to '/storage/32426326/20250626/32426326-20250626-123601-929.all.flv':
  Metadata:
    encoder         : Lavf58.76.100
  Stream #0:0: Video: h264 (High) ([7][0][0][0] / 0x0007), yuv420p(tv, bt709, progressive), 2560x1440 [SAR 1:1 DAR 16:9], q=2-31, 10240 kb/s, 60 fps, 60 tbr, 1k tbn, 1k tbc
  Stream #0:1: Audio: aac (LC) ([10][0][0][0] / 0x000A), 48000 Hz, stereo, fltp, 196 kb/s
Stream mapping:
  Stream #0:0 -> #0:0 (copy)
  Stream #0:1 -> #0:1 (copy)
Press [q] to stop, [?] for help
frame=    1 fps=0.0 q=-1.0 size=       0kB time=00:00:00.00 bitrate=N/A speed=N/A    frame= 3743 fps=0.0 q=-1.0 size=   29440kB time=00:01:02.53 bitrate=3856.9kbits/s speed= 125x    frame= 7832 fps=7828 q=-1.0 size=   65280kB time=00:02:10.68 bitrate=4092.2kbits/s speed= 131x    frame= 9732 fps=6485 q=-1.0 size=  104192kB time=00:02:42.35 bitrate=5257.4kbits/s speed= 108x    frame=11666 fps=5830 q=-1.0 size=  142592kB time=00:03:14.58 bitrate=6003.1kbits/s speed=97.2x    frame=13939 fps=5573 q=-1.0 size=  180736kB time=00:03:52.47 bitrate=6368.9kbits/s speed=  93x    frame=15839 fps=5277 q=-1.0 size=  219904kB time=00:04:24.13 bitrate=6820.3kbits/s speed=  88x    frame=17803 fps=5084 q=-1.0 size=  260864kB time=00:04:56.86 bitrate=7198.6kbits/s speed=84.8x    frame=19799 fps=4947 q=-1.0 size=  302336kB time=00:05:30.13 bitrate=7502.3kbits/s speed=82.5x    frame=21690 fps=4817 q=-1.0 size=  341504kB time=00:06:01.64 bitrate=7735.7kbits/s speed=80.3x    frame=23724 fps=4742 q=-1.0 size=  384000kB time=00:06:35.54 bitrate=7952.9kbits/s speed=79.1x    frame=25751 fps=4679 q=-1.0 size=  425984kB time=00:07:09.33 bitrate=8128.2kbits/s speed=  78x    frame=27755 fps=4623 q=-1.0 size=  467712kB time=00:07:42.74 bitrate=8279.9kbits/s speed=77.1x    frame=29606 fps=4552 q=-1.0 size=  506112kB time=00:08:13.59 bitrate=8399.8kbits/s speed=75.9x    frame=31580 fps=4509 q=-1.0 size=  547072kB time=00:08:46.48 bitrate=8512.4kbits/s speed=75.2x    frame=33570 fps=4473 q=-1.0 size=  588544kB time=00:09:19.64 bitrate=8615.0kbits/s speed=74.6x    frame=35316 fps=4412 q=-1.0 size=  624896kB time=00:09:48.74 bitrate=8695.0kbits/s speed=73.6x    frame=37174 fps=4371 q=-1.0 size=  663296kB time=00:10:19.71 bitrate=8768.1kbits/s speed=72.9x    frame=39145 fps=4347 q=-1.0 size=  704512kB time=00:10:52.56 bitrate=8844.1kbits/s speed=72.5x    frame=41472 fps=4363 q=-1.0 size=  747008kB time=00:11:31.34 bitrate=8851.5kbits/s speed=72.7x    frame=43370 fps=4334 q=-1.0 size=  786432kB time=00:12:02.99 bitrate=8910.8kbits/s speed=72.3x    frame=45596 fps=4340 q=-1.0 size=  827136kB time=00:12:40.08 bitrate=8914.6kbits/s speed=72.3x    frame=47551 fps=4320 q=-1.0 size=  867584kB time=00:13:12.66 bitrate=8966.3kbits/s speed=  72x    frame=49551 fps=4306 q=-1.0 size=  909312kB time=00:13:46.00 bitrate=9018.2kbits/s speed=71.8x    frame=51410 fps=4282 q=-1.0 size=  947712kB time=00:14:16.98 bitrate=9059.3kbits/s speed=71.4x    frame=53275 fps=4259 q=-1.0 size=  986624kB time=00:14:48.06 bitrate=9101.2kbits/s speed=  71x    frame=55295 fps=4251 q=-1.0 size= 1028608kB time=00:15:21.73 bitrate=9141.9kbits/s speed=70.9x    frame=57266 fps=4239 q=-1.0 size= 1069568kB time=00:15:54.58 bitrate=9178.8kbits/s speed=70.7x    frame=59098 fps=4219 q=-1.0 size= 1107712kB time=00:16:25.11 bitrate=9211.5kbits/s speed=70.3x    frame=60809 fps=4191 q=-1.0 size= 1143296kB time=00:16:53.63 bitrate=9239.9kbits/s speed=69.9x    frame=62789 fps=4183 q=-1.0 size= 1184256kB time=00:17:26.63 bitrate=9269.2kbits/s speed=69.7x    frame=64720 fps=4173 q=-1.0 size= 1224704kB time=00:17:58.81 bitrate=9299.8kbits/s speed=69.6x    frame=66627 fps=4162 q=-1.0 size= 1264128kB time=00:18:30.59 bitrate=9324.5kbits/s speed=69.4x    frame=68470 fps=4147 q=-1.0 size= 1302272kB time=00:19:01.31 bitrate=9347.3kbits/s speed=69.1x    frame=70385 fps=4138 q=-1.0 size= 1342208kB time=00:19:33.23 bitrate=9371.9kbits/s speed=  69x    frame=72294 fps=4129 q=-1.0 size= 1381888kB time=00:20:05.06 bitrate=9394.1kbits/s speed=68.8x    frame=73993 fps=4108 q=-1.0 size= 1417216kB time=00:20:33.36 bitrate=9413.2kbits/s speed=68.5x    frame=76069 fps=4110 q=-1.0 size= 1456128kB time=00:21:07.97 bitrate=9407.6kbits/s speed=68.5x    frame=78358 fps=4122 q=-1.0 size= 1495808kB time=00:21:46.11 bitrate=9381.8kbits/s speed=68.7x    frame=80304 fps=4116 q=-1.0 size= 1536256kB time=00:22:18.54 bitrate=9402.0kbits/s speed=68.6x    frame=81966 fps=4096 q=-1.0 size= 1571072kB time=00:22:46.24 bitrate=9420.1kbits/s speed=68.3x    frame=83753 fps=4083 q=-1.0 size= 1607936kB time=00:23:16.03 bitrate=9435.5kbits/s speed=68.1x    frame=85710 fps=4079 q=-1.0 size= 1648640kB time=00:23:48.65 bitrate=9453.4kbits/s speed=  68x    frame=87674 fps=4076 q=-1.0 size= 1689600kB time=00:24:21.38 bitrate=9471.3kbits/s speed=67.9x    frame=89421 fps=4062 q=-1.0 size= 1725952kB time=00:24:50.50 bitrate=9486.1kbits/s speed=67.7x    frame=91181 fps=4050 q=-1.0 size= 1762304kB time=00:25:19.83 bitrate=9499.0kbits/s speed=67.5x    frame=93208 fps=4050 q=-1.0 size= 1804544kB time=00:25:53.62 bitrate=9515.1kbits/s speed=67.5x    frame=95264 fps=4052 q=-1.0 size= 1847296kB time=00:26:27.88 bitrate=9530.3kbits/s speed=67.5x    frame=97039 fps=4041 q=-1.0 size= 1883904kB time=00:26:57.47 bitrate=9541.4kbits/s speed=67.4x    frame=99109 fps=4043 q=-1.0 size= 1922048kB time=00:27:31.97 bitrate=9531.3kbits/s speed=67.4x    frame=101466 fps=4057 q=-1.0 size= 1965312kB time=00:28:11.24 bitrate=9519.5kbits/s speed=67.6x    frame=103539 fps=4058 q=-1.0 size= 2008064kB time=00:28:45.80 bitrate=9531.8kbits/s speed=67.6x    frame=105290 fps=4047 q=-1.0 size= 2044416kB time=00:29:14.98 bitrate=9543.0kbits/s speed=67.5x    frame=107145 fps=4041 q=-1.0 size= 2083328kB time=00:29:45.90 bitrate=9556.3kbits/s speed=67.4x    frame=109111 fps=4039 q=-1.0 size= 2123776kB time=00:30:18.66 bitrate=9566.4kbits/s speed=67.3x    frame=110999 fps=4034 q=-1.0 size= 2163200kB time=00:30:50.13 bitrate=9578.2kbits/s speed=67.2x    frame=112872 fps=4029 q=-1.0 size= 2201856kB time=00:31:21.34 bitrate=9587.6kbits/s speed=67.2x    frame=114701 fps=4022 q=-1.0 size= 2239744kB time=00:31:51.83 bitrate=9597.1kbits/s speed=  67x    frame=116596 fps=4018 q=-1.0 size= 2279424kB time=00:32:23.41 bitrate=9608.4kbits/s speed=  67x    frame=118580 fps=4017 q=-1.0 size= 2320640kB time=00:32:56.49 bitrate=9618.4kbits/s speed=  67x    frame=120508 fps=4015 q=-1.0 size= 2360576kB time=00:33:28.62 bitrate=9627.4kbits/s speed=66.9x    frame=122356 fps=4009 q=-1.0 size= 2399232kB time=00:33:59.42 bitrate=9637.3kbits/s speed=66.8x    frame=124279 fps=4007 q=-1.0 size= 2438912kB time=00:34:31.46 bitrate=9645.1kbits/s speed=66.8x    frame=126159 fps=4003 q=-1.0 size= 2478080kB time=00:35:02.79 bitrate=9654.0kbits/s speed=66.7x    frame=127930 fps=3996 q=-1.0 size= 2514688kB time=00:35:32.31 bitrate=9661.0kbits/s speed=66.6x    frame=129665 fps=3987 q=-1.0 size= 2551552kB time=00:36:01.23 bitrate=9671.5kbits/s speed=66.5x    frame=131900 fps=3995 q=-1.0 size= 2593280kB time=00:36:38.48 bitrate=9663.1kbits/s speed=66.6x    frame=134251 fps=4005 q=-1.0 size= 2634240kB time=00:37:17.66 bitrate=9643.9kbits/s speed=66.8x    frame=136036 fps=3999 q=-1.0 size= 2671360kB time=00:37:47.41 bitrate=9651.4kbits/s speed=66.7x    frame=137871 fps=3994 q=-1.0 size= 2709504kB time=00:38:17.99 bitrate=9659.0kbits/s speed=66.6x    frame=139859 fps=3994 q=-1.0 size= 2750976kB time=00:38:51.13 bitrate=9667.4kbits/s speed=66.6x    frame=141888 fps=3994 q=-1.0 size= 2792960kB time=00:39:24.94 bitrate=9674.6kbits/s speed=66.6x    frame=143658 fps=3988 q=-1.0 size= 2829568kB time=00:39:54.44 bitrate=9680.7kbits/s speed=66.5x    frame=145444 fps=3982 q=-1.0 size= 2866944kB time=00:40:24.21 bitrate=9688.1kbits/s speed=66.4x    frame=147482 fps=3984 q=-1.0 size= 2908928kB time=00:40:58.18 bitrate=9694.1kbits/s speed=66.4x    frame=149755 fps=3991 q=-1.0 size= 2951424kB time=00:41:36.06 bitrate=9686.5kbits/s speed=66.5x    frame=151605 fps=3987 q=-1.0 size= 2987776kB time=00:42:06.89 bitrate=9686.1kbits/s speed=66.5x    frame=153652 fps=3989 q=-1.0 size= 3026176kB time=00:42:41.01 bitrate=9679.9kbits/s speed=66.5x    frame=155517 fps=3985 q=-1.0 size= 3065088kB time=00:43:12.11 bitrate=9686.8kbits/s speed=66.4x    frame=157571 fps=3987 q=-1.0 size= 3107584kB time=00:43:46.33 bitrate=9693.1kbits/s speed=66.4x    frame=159360 fps=3982 q=-1.0 size= 3144704kB time=00:44:16.14 bitrate=9698.8kbits/s speed=66.4x    frame=161074 fps=3975 q=-1.0 size= 3180288kB time=00:44:44.71 bitrate=9704.2kbits/s speed=66.2x    frame=162943 fps=3972 q=-1.0 size= 3218944kB time=00:45:15.86 bitrate=9709.5kbits/s speed=66.2x    frame=165005 fps=3974 q=-1.0 size= 3261696kB time=00:45:50.23 bitrate=9715.5kbits/s speed=66.2x    frame=167112 fps=3976 q=-1.0 size= 3299840kB time=00:46:25.34 bitrate=9705.2kbits/s speed=66.3x    frame=169057 fps=3975 q=-1.0 size= 3340032kB time=00:46:57.77 bitrate=9710.3kbits/s speed=66.3x    frame=171447 fps=3985 q=-1.0 size= 3383296kB time=00:47:37.59 bitrate=9699.0kbits/s speed=66.4x    frame=173482 fps=3985 q=-1.0 size= 3425536kB time=00:48:11.51 bitrate=9705.0kbits/s speed=66.4x    frame=175515 fps=3986 q=-1.0 size= 3467776kB time=00:48:45.39 bitrate=9710.8kbits/s speed=66.4x    frame=177492 fps=3986 q=-1.0 size= 3508736kB time=00:49:18.36 bitrate=9716.0kbits/s speed=66.4x    frame=179365 fps=3983 q=-1.0 size= 3547648kB time=00:49:49.56 bitrate=9721.3kbits/s speed=66.4x    frame=181425 fps=3985 q=-1.0 size= 3590656kB time=00:50:23.89 bitrate=9727.4kbits/s speed=66.4x    frame=183290 fps=3982 q=-1.0 size= 3629056kB time=00:50:54.98 bitrate=9731.4kbits/s speed=66.4x    frame=185243 fps=3981 q=-1.0 size= 3669504kB time=00:51:27.53 bitrate=9736.1kbits/s speed=66.4x    frame=187208 fps=3981 q=-1.0 size= 3710464kB time=00:52:00.28 bitrate=9741.5kbits/s speed=66.3x    frame=189097 fps=3978 q=-1.0 size= 3749888kB time=00:52:31.76 bitrate=9746.6kbits/s speed=66.3x    frame=191136 fps=3979 q=-1.0 size= 3792128kB time=00:53:05.74 bitrate=9751.3kbits/s speed=66.3x    frame=193100 fps=3979 q=-1.0 size= 3833088kB time=00:53:38.48 bitrate=9756.4kbits/s speed=66.3x    frame=194834 fps=3974 q=-1.0 size= 3869184kB time=00:54:07.38 bitrate=9760.6kbits/s speed=66.2x    frame=196874 fps=3975 q=-1.0 size= 3911424kB time=00:54:41.38 bitrate=9764.9kbits/s speed=66.2x    frame=199101 fps=3979 q=-1.0 size= 3953408kB time=00:55:18.49 bitrate=9759.3kbits/s speed=66.3x    frame=201527 fps=3988 q=-1.0 size= 3996160kB time=00:55:58.93 bitrate=9746.1kbits/s speed=66.5x    frame=203590 fps=3989 q=-1.0 size= 4038912kB time=00:56:33.31 bitrate=9750.6kbits/s speed=66.5x    frame=205347 fps=3985 q=-1.0 size= 4075264kB time=00:57:02.59 bitrate=9754.2kbits/s speed=66.4x    frame=207383 fps=3986 q=-1.0 size= 4117504kB time=00:57:36.53 bitrate=9758.5kbits/s speed=66.4x    frame=209294 fps=3984 q=-1.0 size= 4157440kB time=00:58:08.38 bitrate=9763.2kbits/s speed=66.4x    frame=211191 fps=3982 q=-1.0 size= 4196864kB time=00:58:40.00 bitrate=9767.2kbits/s speed=66.4x    frame=213256 fps=3984 q=-1.0 size= 4239872kB time=00:59:14.41 bitrate=9771.8kbits/s speed=66.4x    frame=215121 fps=3981 q=-1.0 size= 4278528kB time=00:59:45.49 bitrate=9775.4kbits/s speed=66.4x    frame=217004 fps=3979 q=-1.0 size= 4317696kB time=01:00:16.88 bitrate=9779.3kbits/s speed=66.3x    frame=218915 fps=3978 q=-1.0 size= 4357376kB time=01:00:48.73 bitrate=9783.0kbits/s speed=66.3x    frame=220798 fps=3976 q=-1.0 size= 4396800kB time=01:01:20.11 bitrate=9787.4kbits/s speed=66.3x    frame=222795 fps=3976 q=-1.0 size= 4438016kB time=01:01:53.39 bitrate=9790.6kbits/s speed=66.3x    frame=224762 fps=3975 q=-1.0 size= 4478976kB time=01:02:26.18 bitrate=9794.4kbits/s speed=66.3x    frame=226644 fps=3974 q=-1.0 size= 4517888kB time=01:02:57.56 bitrate=9797.5kbits/s speed=66.2x    frame=228681 fps=3974 q=-1.0 size= 4560384kB time=01:03:31.50 bitrate=9801.6kbits/s speed=66.2x    frame=230577 fps=3973 q=-1.0 size= 4599552kB time=01:04:03.09 bitrate=9804.5kbits/s speed=66.2x    frame=232366 fps=3970 q=-1.0 size= 4636672kB time=01:04:32.91 bitrate=9807.5kbits/s speed=66.2x    frame=234638 fps=3974 q=-1.0 size= 4678144kB time=01:05:10.78 bitrate=9799.4kbits/s speed=66.2x    frame=236776 fps=3977 q=-1.0 size= 4713984kB time=01:05:46.41 bitrate=9785.3kbits/s speed=66.3x    frame=238801 fps=3977 q=-1.0 size= 4755456kB time=01:06:20.16 bitrate=9787.7kbits/s speed=66.3x    frame=240759 fps=3977 q=-1.0 size= 4796160kB time=01:06:52.80 bitrate=9791.2kbits/s speed=66.3x    frame=242456 fps=3972 q=-1.0 size= 4831232kB time=01:07:21.09 bitrate=9793.8kbits/s speed=66.2x    frame=244457 fps=3972 q=-1.0 size= 4872960kB time=01:07:54.43 bitrate=9797.5kbits/s speed=66.2x    frame=246355 fps=3971 q=-1.0 size= 4912384kB time=01:08:26.07 bitrate=9800.7kbits/s speed=66.2x    frame=248099 fps=3967 q=-1.0 size= 4948480kB time=01:08:55.13 bitrate=9803.3kbits/s speed=66.1x    frame=249618 fps=3960 q=-1.0 size= 4980224kB time=01:09:20.45 bitrate=9806.1kbits/s speed=  66x    frame=251163 fps=3953 q=-1.0 size= 5012480kB time=01:09:46.19 bitrate=9809.0kbits/s speed=65.9x    frame=252644 fps=3945 q=-1.0 size= 5042944kB time=01:10:10.88 bitrate=9810.7kbits/s speed=65.8x    frame=254274 fps=3940 q=-1.0 size= 5076992kB time=01:10:38.04 bitrate=9813.7kbits/s speed=65.7x    frame=256160 fps=3938 q=-1.0 size= 5116160kB time=01:11:09.48 bitrate=9816.5kbits/s speed=65.6x    frame=257891 fps=3935 q=-1.0 size= 5152000kB time=01:11:38.33 bitrate=9819.0kbits/s speed=65.6x    frame=259782 fps=3934 q=-1.0 size= 5191424kB time=01:12:09.84 bitrate=9822.1kbits/s speed=65.6x    frame=261535 fps=3930 q=-1.0 size= 5227776kB time=01:12:39.06 bitrate=9824.6kbits/s speed=65.5x    frame=263489 fps=3930 q=-1.0 size= 5268480kB time=01:13:11.63 bitrate=9827.6kbits/s speed=65.5x    frame=265630 fps=3933 q=-1.0 size= 5308160kB time=01:13:47.31 bitrate=9821.9kbits/s speed=65.5x    frame=267663 fps=3934 q=-1.0 size= 5344512kB time=01:14:21.19 bitrate=9814.0kbits/s speed=65.6x    frame=269604 fps=3933 q=-1.0 size= 5384448kB time=01:14:53.54 bitrate=9816.2kbits/s speed=65.6x    frame=271584 fps=3933 q=-1.0 size= 5425664kB time=01:15:26.54 bitrate=9819.2kbits/s speed=65.6x    frame=273495 fps=3933 q=-1.0 size= 5465600kB time=01:15:58.39 bitrate=9822.4kbits/s speed=65.5x    frame=275476 fps=3933 q=-1.0 size= 5506304kB time=01:16:31.42 bitrate=9824.3kbits/s speed=65.5x    frame=277469 fps=3933 q=-1.0 size= 5548032kB time=01:17:04.63 bitrate=9827.7kbits/s speed=65.6x    frame=279195 fps=3930 q=-1.0 size= 5583616kB time=01:17:33.40 bitrate=9829.6kbits/s speed=65.5x    frame=281178 fps=3930 q=-1.0 size= 5624832kB time=01:18:06.44 bitrate=9832.3kbits/s speed=65.5x    frame=283056 fps=3929 q=-1.0 size= 5664256kB time=01:18:37.74 bitrate=9835.5kbits/s speed=65.5x    frame=284909 fps=3927 q=-1.0 size= 5702400kB time=01:19:08.63 bitrate=9837.4kbits/s speed=65.5x    frame=286833 fps=3927 q=-1.0 size= 5742336kB time=01:19:40.69 bitrate=9839.8kbits/s speed=65.4x    frame=288905 fps=3928 q=-1.0 size= 5785856kB time=01:20:15.23 bitrate=9843.3kbits/s speed=65.5x    frame=290991 fps=3930 q=-1.0 size= 5828864kB time=01:20:50.00 bitrate=9845.4kbits/s speed=65.5x    frame=292973 fps=3930 q=-1.0 size= 5870080kB time=01:21:23.03 bitrate=9847.9kbits/s speed=65.5x    frame=294758 fps=3927 q=-1.0 size= 5907200kB time=01:21:52.78 bitrate=9850.2kbits/s speed=65.5x    frame=296921 fps=3930 q=-1.0 size= 5948416kB time=01:22:28.83 bitrate=9846.7kbits/s speed=65.5x    frame=299110 fps=3933 q=-1.0 size= 5987840kB time=01:23:05.32 bitrate=9839.4kbits/s speed=65.6x    frame=300967 fps=3932 q=-1.0 size= 6026496kB time=01:23:36.26 bitrate=9841.8kbits/s speed=65.5x    frame=302965 fps=3932 q=-1.0 size= 6067968kB time=01:24:09.56 bitrate=9844.2kbits/s speed=65.5x    frame=304820 fps=3930 q=-1.0 size= 6106368kB time=01:24:40.49 bitrate=9846.2kbits/s speed=65.5x    frame=306648 fps=3929 q=-1.0 size= 6144512kB time=01:25:10.94 bitrate=9848.6kbits/s speed=65.5x    frame=308613 fps=3929 q=-1.0 size= 6185472kB time=01:25:43.69 bitrate=9851.2kbits/s speed=65.5x    frame=310565 fps=3928 q=-1.0 size= 6225920kB time=01:26:16.23 bitrate=9853.3kbits/s speed=65.5x    frame=312500 fps=3928 q=-1.0 size= 6266112kB time=01:26:48.49 bitrate=9855.4kbits/s speed=65.5x    frame=314335 fps=3926 q=-1.0 size= 6304512kB time=01:27:19.06 bitrate=9858.0kbits/s speed=65.4x    frame=316129 fps=3924 q=-1.0 size= 6341376kB time=01:27:48.97 bitrate=9859.3kbits/s speed=65.4x    frame=318049 fps=3924 q=-1.0 size= 6381568kB time=01:28:20.97 bitrate=9861.9kbits/s speed=65.4x    frame=319883 fps=3922 q=-1.0 size= 6419456kB time=01:28:51.54 bitrate=9863.6kbits/s speed=65.4x    frame=321814 fps=3922 q=-1.0 size= 6459904kB time=01:29:23.71 bitrate=9866.2kbits/s speed=65.4x    frame=323760 fps=3922 q=-1.0 size= 6500096kB time=01:29:56.14 bitrate=9867.9kbits/s speed=65.4x    frame=325620 fps=3920 q=-1.0 size= 6538752kB time=01:30:27.14 bitrate=9869.9kbits/s speed=65.3x    frame=327539 fps=3920 q=-1.0 size= 6578688kB time=01:30:59.14 bitrate=9872.0kbits/s speed=65.3x    frame=329643 fps=3922 q=-1.0 size= 6617344kB time=01:31:34.19 bitrate=9866.6kbits/s speed=65.4x    frame=331489 fps=3920 q=-1.0 size= 6655488kB time=01:32:04.96 bitrate=9868.3kbits/s speed=65.3x    frame=333803 fps=3924 q=-1.0 size= 6695680kB time=01:32:43.54 bitrate=9859.0kbits/s speed=65.4x    frame=335618 fps=3923 q=-1.0 size= 6733312kB time=01:33:13.78 bitrate=9860.8kbits/s speed=65.4x    frame=337485 fps=3922 q=-1.0 size= 6771968kB time=01:33:44.89 bitrate=9862.6kbits/s speed=65.4x    frame=339401 fps=3921 q=-1.0 size= 6811648kB time=01:34:16.83 bitrate=9864.4kbits/s speed=65.4x    frame=341161 fps=3919 q=-1.0 size= 6848256kB time=01:34:46.16 bitrate=9866.2kbits/s speed=65.3x    frame=343077 fps=3918 q=-1.0 size= 6887936kB time=01:35:18.10 bitrate=9867.9kbits/s speed=65.3x    frame=345116 fps=3919 q=-1.0 size= 6930432kB time=01:35:52.08 bitrate=9870.2kbits/s speed=65.3x    frame=347031 fps=3919 q=-1.0 size= 6970368kB time=01:36:23.99 bitrate=9872.3kbits/s speed=65.3x    frame=349071 fps=3920 q=-1.0 size= 7012608kB time=01:36:57.99 bitrate=9874.1kbits/s speed=65.3x    frame=350927 fps=3918 q=-1.0 size= 7051264kB time=01:37:28.93 bitrate=9876.0kbits/s speed=65.3x    frame=352778 fps=3917 q=-1.0 size= 7089664kB time=01:37:59.79 bitrate=9877.7kbits/s speed=65.3x    frame=354742 fps=3917 q=-1.0 size= 7130368kB time=01:38:32.51 bitrate=9879.4kbits/s speed=65.3x    frame=356522 fps=3915 q=-1.0 size= 7167488kB time=01:39:02.19 bitrate=9881.2kbits/s speed=65.3x    frame=358711 fps=3918 q=-1.0 size= 7207424kB time=01:39:38.67 bitrate=9875.6kbits/s speed=65.3x    frame=360329 fps=3914 q=-1.0 size= 7240704kB time=01:40:05.63 bitrate=9876.7kbits/s speed=65.2x    frame=362451 fps=3916 q=-1.0 size= 7276032kB time=01:40:41.00 bitrate=9866.8kbits/s speed=65.3x    frame=364319 fps=3915 q=-1.0 size= 7314688kB time=01:41:12.13 bitrate=9868.4kbits/s speed=65.2x    frame=366267 fps=3915 q=-1.0 size= 7355136kB time=01:41:44.60 bitrate=9870.1kbits/s speed=65.2x    frame=367953 fps=3912 q=-1.0 size= 7390208kB time=01:42:12.69 bitrate=9871.8kbits/s speed=65.2x    frame=369949 fps=3912 q=-1.0 size= 7431680kB time=01:42:45.97 bitrate=9873.6kbits/s speed=65.2x    frame=371908 fps=3912 q=-1.0 size= 7472640kB time=01:43:18.61 bitrate=9875.7kbits/s speed=65.2x    frame=373880 fps=3912 q=-1.0 size= 7513344kB time=01:43:51.49 bitrate=9877.1kbits/s speed=65.2x    frame=375898 fps=3913 q=-1.0 size= 7555584kB time=01:44:25.11 bitrate=9879.4kbits/s speed=65.2x    frame=377651 fps=3911 q=-1.0 size= 7591936kB time=01:44:54.34 bitrate=9880.8kbits/s speed=65.2x    frame=379684 fps=3912 q=-1.0 size= 7634176kB time=01:45:28.21 bitrate=9882.6kbits/s speed=65.2x    frame=381914 fps=3915 q=-1.0 size= 7675136kB time=01:46:05.38 bitrate=9877.6kbits/s speed=65.2x    frame=383959 fps=3915 q=-1.0 size= 7717632kB time=01:46:39.47 bitrate=9879.4kbits/s speed=65.3x    frame=386259 fps=3919 q=-1.0 size= 7758592kB time=01:47:17.79 bitrate=9872.7kbits/s speed=65.3x    frame=388169 fps=3918 q=-1.0 size= 7798272kB time=01:47:49.63 bitrate=9874.4kbits/s speed=65.3x    frame=390184 fps=3919 q=-1.0 size= 7840000kB time=01:48:23.21 bitrate=9875.9kbits/s speed=65.3x    frame=392478 fps=3922 q=-1.0 size= 7879936kB time=01:49:01.44 bitrate=9868.2kbits/s speed=65.4x    frame=395390 fps=3932 q=-1.0 size= 7921408kB time=01:49:49.98 bitrate=9847.1kbits/s speed=65.5x    frame=397587 fps=3934 q=-1.0 size= 7963136kB time=01:50:26.59 bitrate=9844.3kbits/s speed=65.6x    frame=399814 fps=3936 q=-1.0 size= 8005120kB time=01:51:03.71 bitrate=9841.1kbits/s speed=65.6x    frame=401865 fps=3937 q=-1.0 size= 8047872kB time=01:51:37.89 bitrate=9843.1kbits/s speed=65.6x    frame=403913 fps=3938 q=-1.0 size= 8090368kB time=01:52:12.03 bitrate=9844.9kbits/s speed=65.6x    frame=405782 fps=3937 q=-1.0 size= 8129280kB time=01:52:43.18 bitrate=9846.7kbits/s speed=65.6x    frame=407833 fps=3938 q=-1.0 size= 8172032kB time=01:53:17.36 bitrate=9848.7kbits/s speed=65.6x    frame=409763 fps=3937 q=-1.0 size= 8211968kB time=01:53:49.53 bitrate=9850.2kbits/s speed=65.6x    frame=411642 fps=3937 q=-1.0 size= 8250880kB time=01:54:20.84 bitrate=9851.7kbits/s speed=65.6x    frame=413706 fps=3937 q=-1.0 size= 8293888kB time=01:54:55.25 bitrate=9853.7kbits/s speed=65.6x    frame=415392 fps=3935 q=-1.0 size= 8328960kB time=01:55:23.34 bitrate=9855.2kbits/s speed=65.6x    frame=417427 fps=3935 q=-1.0 size= 8371456kB time=01:55:57.26 bitrate=9857.2kbits/s speed=65.6x    frame=419320 fps=3935 q=-1.0 size= 8410624kB time=01:56:28.81 bitrate=9858.6kbits/s speed=65.6x    frame=421032 fps=3932 q=-1.0 size= 8445952kB time=01:56:57.34 bitrate=9859.7kbits/s speed=65.5x    frame=423063 fps=3933 q=-1.0 size= 8488448kB time=01:57:31.20 bitrate=9861.8kbits/s speed=65.5x    frame=424978 fps=3932 q=-1.0 size= 8527872kB time=01:58:03.11 bitrate=9862.9kbits/s speed=65.5x    frame=426964 fps=3933 q=-1.0 size= 8569344kB time=01:58:36.21 bitrate=9864.8kbits/s speed=65.5x    frame=429005 fps=3933 q=-1.0 size= 8611584kB time=01:59:10.23 bitrate=9866.3kbits/s speed=65.6x    frame=431055 fps=3934 q=-1.0 size= 8648704kB time=01:59:44.40 bitrate=9861.7kbits/s speed=65.6x    frame=433207 fps=3936 q=-1.0 size= 8691456kB time=02:00:20.26 bitrate=9861.2kbits/s speed=65.6x    frame=435490 fps=3938 q=-1.0 size= 8733440kB time=02:00:58.31 bitrate=9856.9kbits/s speed=65.6x    frame=437509 fps=3939 q=-1.0 size= 8775424kB time=02:01:31.96 bitrate=9858.6kbits/s speed=65.6x    frame=439537 fps=3939 q=-1.0 size= 8817408kB time=02:02:05.76 bitrate=9860.0kbits/s speed=65.7x    frame=441290 fps=3937 q=-1.0 size= 8854016kB time=02:02:34.99 bitrate=9861.6kbits/s speed=65.6x    frame=443310 fps=3938 q=-1.0 size= 8896000kB time=02:03:08.65 bitrate=9863.2kbits/s speed=65.6x    frame=445396 fps=3939 q=-1.0 size= 8939264kB time=02:03:43.41 bitrate=9864.8kbits/s speed=65.7x    frame=447434 fps=3940 q=-1.0 size= 8981504kB time=02:04:17.39 bitrate=9866.3kbits/s speed=65.7x    frame=449449 fps=3940 q=-1.0 size= 9023488kB time=02:04:50.96 bitrate=9867.9kbits/s speed=65.7x    frame=451355 fps=3939 q=-1.0 size= 9063168kB time=02:05:22.73 bitrate=9869.5kbits/s speed=65.7x    frame=453106 fps=3937 q=-1.0 size= 9099520kB time=02:05:51.91 bitrate=9870.8kbits/s speed=65.6x    frame=455122 fps=3938 q=-1.0 size= 9141248kB time=02:06:25.51 bitrate=9872.1kbits/s speed=65.6x    frame=456954 fps=3937 q=-1.0 size= 9179392kB time=02:06:56.04 bitrate=9873.6kbits/s speed=65.6x    frame=458824 fps=3936 q=-1.0 size= 9218304kB time=02:07:27.21 bitrate=9875.0kbits/s speed=65.6x    frame=460837 fps=3936 q=-1.0 size= 9260032kB time=02:08:00.77 bitrate=9876.4kbits/s speed=65.6x    frame=462705 fps=3935 q=-1.0 size= 9298688kB time=02:08:31.89 bitrate=9877.6kbits/s speed=65.6x    frame=464760 fps=3936 q=-1.0 size= 9340160kB time=02:09:06.14 bitrate=9877.8kbits/s speed=65.6x    frame=466805 fps=3937 q=-1.0 size= 9378816kB time=02:09:40.23 bitrate=9875.2kbits/s speed=65.6x    frame=469046 fps=3939 q=-1.0 size= 9417472kB time=02:10:17.58 bitrate=9868.5kbits/s speed=65.6x    frame=471069 fps=3939 q=-1.0 size= 9459456kB time=02:10:51.29 bitrate=9869.9kbits/s speed=65.7x    frame=472998 fps=3939 q=-1.0 size= 9499648kB time=02:11:23.44 bitrate=9871.5kbits/s speed=65.7x    frame=475007 fps=3939 q=-1.0 size= 9541120kB time=02:11:56.93 bitrate=9872.6kbits/s speed=65.7x    frame=476997 fps=3939 q=-1.0 size= 9582592kB time=02:12:30.10 bitrate=9874.2kbits/s speed=65.7x    frame=478696 fps=3937 q=-1.0 size= 9617920kB time=02:12:58.41 bitrate=9875.4kbits/s speed=65.6x    frame=480695 fps=3937 q=-1.0 size= 9659648kB time=02:13:31.73 bitrate=9877.0kbits/s speed=65.6x    frame=482620 fps=3937 q=-1.0 size= 9699328kB time=02:14:03.82 bitrate=9878.0kbits/s speed=65.6x    frame=484403 fps=3936 q=-1.0 size= 9736448kB time=02:14:33.54 bitrate=9879.3kbits/s speed=65.6x    frame=486358 fps=3935 q=-1.0 size= 9776896kB time=02:15:06.11 bitrate=9880.5kbits/s speed=65.6x    frame=488182 fps=3934 q=-1.0 size= 9814784kB time=02:15:36.51 bitrate=9881.7kbits/s speed=65.6x    frame=489942 fps=3933 q=-1.0 size= 9851392kB time=02:16:05.84 bitrate=9882.9kbits/s speed=65.5x    frame=491926 fps=3933 q=-1.0 size= 9892608kB time=02:16:38.91 bitrate=9884.3kbits/s speed=65.5x    frame=493539 fps=3930 q=-1.0 size= 9926144kB time=02:17:05.79 bitrate=9885.4kbits/s speed=65.5x    frame=495524 fps=3930 q=-1.0 size= 9967360kB time=02:17:38.88 bitrate=9886.6kbits/s speed=65.5x    frame=497120 fps=3927 q=-1.0 size=10000384kB time=02:18:05.48 bitrate=9887.5kbits/s speed=65.5x    frame=498593 fps=3923 q=-1.0 size=10031104kB time=02:18:30.04 bitrate=9888.6kbits/s speed=65.4x    frame=500122 fps=3920 q=-1.0 size=10062848kB time=02:18:55.51 bitrate=9889.6kbits/s speed=65.3x    frame=501599 fps=3916 q=-1.0 size=10093568kB time=02:19:20.13 bitrate=9890.6kbits/s speed=65.3x    frame=503471 fps=3915 q=-1.0 size=10126592kB time=02:19:51.34 bitrate=9886.0kbits/s speed=65.3x    frame=505164 fps=3913 q=-1.0 size=10161664kB time=02:20:19.54 bitrate=9887.0kbits/s speed=65.2x    frame=506848 fps=3911 q=-1.0 size=10196736kB time=02:20:47.61 bitrate=9888.2kbits/s speed=65.2x    frame=508952 fps=3912 q=-1.0 size=10232064kB time=02:21:22.68 bitrate=9881.4kbits/s speed=65.2x    frame=510885 fps=3912 q=-1.0 size=10272256kB time=02:21:54.89 bitrate=9882.7kbits/s speed=65.2x    frame=512730 fps=3911 q=-1.0 size=10310144kB time=02:22:25.64 bitrate=9883.5kbits/s speed=65.2x    frame=514639 fps=3911 q=-1.0 size=10350080kB time=02:22:57.47 bitrate=9884.9kbits/s speed=65.2x    frame=516334 fps=3909 q=-1.0 size=10385152kB time=02:23:25.72 bitrate=9885.9kbits/s speed=65.2x    frame=518164 fps=3908 q=-1.0 size=10423296kB time=02:23:56.22 bitrate=9887.1kbits/s speed=65.1x    frame=520122 fps=3908 q=-1.0 size=10464000kB time=02:24:28.84 bitrate=9888.4kbits/s speed=65.1x    frame=522075 fps=3908 q=-1.0 size=10504448kB time=02:25:01.40 bitrate=9889.5kbits/s speed=65.1x    frame=523844 fps=3907 q=-1.0 size=10541312kB time=02:25:30.88 bitrate=9890.7kbits/s speed=65.1x    frame=525987 fps=3908 q=-1.0 size=10580480kB time=02:26:06.59 bitrate=9887.0kbits/s speed=65.1x    frame=527702 fps=3906 q=-1.0 size=10615808kB time=02:26:35.18 bitrate=9887.8kbits/s speed=65.1x    frame=529944 fps=3908 q=-1.0 size=10653952kB time=02:27:12.55 bitrate=9881.3kbits/s speed=65.1x    frame=531682 fps=3907 q=-1.0 size=10690304kB time=02:27:41.51 bitrate=9882.6kbits/s speed=65.1x    frame=533411 fps=3905 q=-1.0 size=10726144kB time=02:28:10.33 bitrate=9883.6kbits/s speed=65.1x    frame=535353 fps=3905 q=-1.0 size=10766592kB time=02:28:42.69 bitrate=9884.9kbits/s speed=65.1x    frame=537327 fps=3905 q=-1.0 size=10807552kB time=02:29:15.60 bitrate=9886.0kbits/s speed=65.1x    frame=539099 fps=3904 q=-1.0 size=10844416kB time=02:29:45.13 bitrate=9887.2kbits/s speed=65.1x    frame=540950 fps=3903 q=-1.0 size=10882816kB time=02:30:15.98 bitrate=9888.2kbits/s speed=65.1x    frame=542609 fps=3901 q=-1.0 size=10917376kB time=02:30:43.63 bitrate=9889.3kbits/s speed=  65x    frame=544447 fps=3900 q=-1.0 size=10955520kB time=02:31:14.26 bitrate=9890.3kbits/s speed=  65x    frame=546244 fps=3899 q=-1.0 size=10992896kB time=02:31:44.21 bitrate=9891.4kbits/s speed=  65x    frame=547921 fps=3897 q=-1.0 size=11027712kB time=02:32:12.16 bitrate=9892.4kbits/s speed=  65x    frame=550250 fps=3900 q=-1.0 size=11066624kB time=02:32:50.99 bitrate=9885.3kbits/s speed=  65x    frame=553237 fps=3907 q=-1.0 size=11107072kB time=02:33:40.76 bitrate=9867.9kbits/s speed=65.1x    frame=557015 fps=3920 q=-1.0 size=11143168kB time=02:34:43.73 bitrate=9832.8kbits/s speed=65.3x    frame=559872 fps=3926 q=-1.0 size=11183360kB time=02:35:31.35 bitrate=9817.9kbits/s speed=65.4x    frame=562722 fps=3933 q=-1.0 size=11224320kB time=02:36:18.84 bitrate=9803.9kbits/s speed=65.5x    frame=565106 fps=3935 q=-1.0 size=11265024kB time=02:36:58.58 bitrate=9798.0kbits/s speed=65.6x    frame=567898 fps=3941 q=-1.0 size=11301888kB time=02:37:45.11 bitrate=9781.7kbits/s speed=65.7x    frame=569976 fps=3942 q=-1.0 size=11342848kB time=02:38:19.75 bitrate=9781.4kbits/s speed=65.7x    frame=572259 fps=3944 q=-1.0 size=11380992kB time=02:38:57.79 bitrate=9775.1kbits/s speed=65.7x    frame=574468 fps=3946 q=-1.0 size=11424512kB time=02:39:34.61 bitrate=9774.8kbits/s speed=65.8x    frame=576598 fps=3947 q=-1.0 size=11465472kB time=02:40:10.11 bitrate=9773.6kbits/s speed=65.8x    frame=579019 fps=3950 q=-1.0 size=11504384kB time=02:40:50.47 bitrate=9765.7kbits/s speed=65.8x    frame=580888 fps=3949 q=-1.0 size=11542528kB time=02:41:21.62 bitrate=9766.6kbits/s speed=65.8x    frame=583589 fps=3954 q=-1.0 size=11582720kB time=02:42:06.63 bitrate=9755.2kbits/s speed=65.9x    frame=585609 fps=3954 q=-1.0 size=11622144kB time=02:42:40.30 bitrate=9754.7kbits/s speed=65.9x    frame=587358 fps=3953 q=-1.0 size=11657728kB time=02:43:09.44 bitrate=9755.4kbits/s speed=65.9x    frame=589563 fps=3954 q=-1.0 size=11697920kB time=02:43:46.19 bitrate=9752.4kbits/s speed=65.9x    frame=591691 fps=3955 q=-1.0 size=11739904kB time=02:44:21.67 bitrate=9752.2kbits/s speed=65.9x    frame=593741 fps=3956 q=-1.0 size=11781632kB time=02:44:55.83 bitrate=9753.1kbits/s speed=65.9x    frame=595602 fps=3955 q=-1.0 size=11817216kB time=02:45:26.84 bitrate=9752.0kbits/s speed=65.9x    frame=597897 fps=3957 q=-1.0 size=11860224kB time=02:46:05.09 bitrate=9749.9kbits/s speed=  66x    frame=599971 fps=3958 q=-1.0 size=11900160kB time=02:46:39.66 bitrate=9748.9kbits/s speed=  66x    frame=602589 fps=3962 q=-1.0 size=11942144kB time=02:47:23.31 bitrate=9740.8kbits/s speed=  66x    frame=604608 fps=3962 q=-1.0 size=11983104kB time=02:47:56.95 bitrate=9741.6kbits/s speed=  66x    frame=606679 fps=3963 q=-1.0 size=12021760kB time=02:48:31.47 bitrate=9739.7kbits/s speed=  66x    frame=608672 fps=3963 q=-1.0 size=12062464kB time=02:49:04.68 bitrate=9740.6kbits/s speed=  66x    frame=610513 fps=3962 q=-1.0 size=12098304kB time=02:49:35.36 bitrate=9740.1kbits/s speed=  66x    frame=614134 fps=3972 q=-1.0 size=12136448kB time=02:50:35.71 bitrate=9713.2kbits/s speed=66.2x    frame=616508 fps=3975 q=-1.0 size=12178688kB time=02:51:15.28 bitrate=9709.5kbits/s speed=66.2x    frame=618529 fps=3975 q=-1.0 size=12219392kB time=02:51:48.96 bitrate=9710.1kbits/s speed=66.3x    frame=620609 fps=3976 q=-1.0 size=12260608kB time=02:52:23.64 bitrate=9710.2kbits/s speed=66.3x    frame=622708 fps=3976 q=-1.0 size=12300800kB time=02:52:58.61 bitrate=9709.2kbits/s speed=66.3x    frame=625514 fps=3982 q=-1.0 size=12340736kB time=02:53:45.38 bitrate=9697.0kbits/s speed=66.4x    frame=629312 fps=3993 q=-1.0 size=12382720kB time=02:54:48.68 bitrate=9671.3kbits/s speed=66.5x    frame=632061 fps=3998 q=-1.0 size=12426496kB time=02:55:34.51 bitrate=9663.3kbits/s speed=66.6x    frame=634752 fps=4002 q=-1.0 size=12463616kB time=02:56:19.35 bitrate=9651.1kbits/s speed=66.7x    frame=637195 fps=4005 q=-1.0 size=12503040kB time=02:57:00.07 bitrate=9644.5kbits/s speed=66.7x    frame=639715 fps=4008 q=-1.0 size=12541184kB time=02:57:42.06 bitrate=9635.8kbits/s speed=66.8x    frame=641924 fps=4009 q=-1.0 size=12582144kB time=02:58:18.88 bitrate=9634.0kbits/s speed=66.8x    frame=644704 fps=4014 q=-1.0 size=12620288kB time=02:59:05.21 bitrate=9621.5kbits/s speed=66.9x    frame=648047 fps=4022 q=-1.0 size=12662784kB time=03:00:00.94 bitrate=9604.1kbits/s speed=  67x    frame=650500 fps=4025 q=-1.0 size=12700928kB time=03:00:41.81 bitrate=9596.7kbits/s speed=67.1x    frame=652841 fps=4027 q=-1.0 size=12741888kB time=03:01:20.83 bitrate=9593.2kbits/s speed=67.1x    frame=655295 fps=4030 q=-1.0 size=12783104kB time=03:02:01.73 bitrate=9588.1kbits/s speed=67.2x    frame=657432 fps=4031 q=-1.0 size=12820736kB time=03:02:37.35 bitrate=9585.1kbits/s speed=67.2x    frame=659654 fps=4032 q=-1.0 size=12862464kB time=03:03:14.39 bitrate=9583.9kbits/s speed=67.2x    frame=662892 fps=4039 q=-1.0 size=12901120kB time=03:04:08.34 bitrate=9565.8kbits/s speed=67.3x    frame=664980 fps=4040 q=-1.0 size=12942592kB time=03:04:43.16 bitrate=9566.4kbits/s speed=67.3x    frame=667112 fps=4040 q=-1.0 size=12978432kB time=03:05:18.68 bitrate=9562.2kbits/s speed=67.3x    frame=669956 fps=4045 q=-1.0 size=13019904kB time=03:06:06.08 bitrate=9552.1kbits/s speed=67.4x    frame=672460 fps=4048 q=-1.0 size=13058816kB time=03:06:47.81 bitrate=9544.9kbits/s speed=67.5x    frame=675265 fps=4053 q=-1.0 size=13095680kB time=03:07:34.57 bitrate=9532.1kbits/s speed=67.5x    frame=678847 fps=4062 q=-1.0 size=13136384kB time=03:08:34.26 bitrate=9511.3kbits/s speed=67.7x    frame=681833 fps=4068 q=-1.0 size=13174272kB time=03:09:24.03 bitrate=9497.0kbits/s speed=67.8x    frame=683799 fps=4067 q=-1.0 size=13214976kB time=03:09:56.80 bitrate=9498.9kbits/s speed=67.8x    frame=685998 fps=4068 q=-1.0 size=13255424kB time=03:10:33.45 bitrate=9497.4kbits/s speed=67.8x    frame=688639 fps=4072 q=-1.0 size=13292032kB time=03:11:17.46 bitrate=9487.1kbits/s speed=67.9x    frame=690866 fps=4073 q=-1.0 size=13333248kB time=03:11:54.58 bitrate=9485.9kbits/s speed=67.9x    frame=693488 fps=4077 q=-1.0 size=13373952kB time=03:12:38.28 bitrate=9478.9kbits/s speed=67.9x    frame=695791 fps=4078 q=-1.0 size=13415168kB time=03:13:16.66 bitrate=9476.6kbits/s speed=  68x    frame=698192 fps=4080 q=-1.0 size=13458688kB time=03:13:56.68 bitrate=9474.7kbits/s speed=  68x    frame=700523 fps=4082 q=-1.0 size=13500416kB time=03:14:35.54 bitrate=9472.4kbits/s speed=  68x    frame=703192 fps=4086 q=-1.0 size=13540864kB time=03:15:20.01 bitrate=9464.7kbits/s speed=68.1x    frame=705771 fps=4089 q=-1.0 size=13581312kB time=03:16:03.01 bitrate=9458.3kbits/s speed=68.1x    frame=707942 fps=4089 q=-1.0 size=13617152kB time=03:16:39.19 bitrate=9454.2kbits/s speed=68.2x    frame=710459 fps=4092 q=-1.0 size=13658368kB time=03:17:21.13 bitrate=9449.2kbits/s speed=68.2x    frame=714154 fps=4102 q=-1.0 size=13699328kB time=03:18:22.72 bitrate=9428.5kbits/s speed=68.4x    frame=716162 fps=4101 q=-1.0 size=13738496kB time=03:18:56.18 bitrate=9429.0kbits/s speed=68.4x    frame=718943 fps=4105 q=-1.0 size=13777408kB time=03:19:42.53 bitrate=9419.1kbits/s speed=68.4x    frame=721160 fps=4106 q=-1.0 size=13818368kB time=03:20:19.48 bitrate=9418.0kbits/s speed=68.4x    frame=724754 fps=4115 q=-1.0 size=13860352kB time=03:21:19.38 bitrate=9399.8kbits/s speed=68.6x    frame=726702 fps=4114 q=-1.0 size=13899008kB time=03:21:51.84 bitrate=9400.8kbits/s speed=68.6x    frame=728888 fps=4115 q=-1.0 size=13942528kB time=03:22:28.29 bitrate=9401.9kbits/s speed=68.6x    frame=731686 fps=4119 q=-1.0 size=13984000kB time=03:23:14.91 bitrate=9393.8kbits/s speed=68.7x    frame=733558 fps=4118 q=-1.0 size=14020864kB time=03:23:46.11 bitrate=9394.6kbits/s speed=68.6x    frame=735798 fps=4119 q=-1.0 size=14064640kB time=03:24:23.44 bitrate=9395.2kbits/s speed=68.7x    frame=737970 fps=4120 q=-1.0 size=14106880kB time=03:24:59.65 bitrate=9395.7kbits/s speed=68.7x    frame=740047 fps=4120 q=-1.0 size=14146560kB time=03:25:34.26 bitrate=9395.7kbits/s speed=68.7x    frame=742313 fps=4121 q=-1.0 size=14190080kB time=03:26:12.03 bitrate=9395.8kbits/s speed=68.7x    frame=744433 fps=4121 q=-1.0 size=14230784kB time=03:26:47.36 bitrate=9395.9kbits/s speed=68.7x    frame=746611 fps=4122 q=-1.0 size=14273536kB time=03:27:23.67 bitrate=9396.6kbits/s speed=68.7x    frame=748748 fps=4123 q=-1.0 size=14317312kB time=03:27:59.28 bitrate=9398.6kbits/s speed=68.7x    frame=750649 fps=4122 q=-1.0 size=14355712kB time=03:28:30.96 bitrate=9399.9kbits/s speed=68.7x    frame=753522 fps=4126 q=-1.0 size=14398720kB time=03:29:18.84 bitrate=9392.1kbits/s speed=68.8x    frame=755782 fps=4127 q=-1.0 size=14441472kB time=03:29:56.51 bitrate=9391.8kbits/s speed=68.8x    frame=758038 fps=4128 q=-1.0 size=14482432kB time=03:30:34.11 bitrate=9390.5kbits/s speed=68.8x    frame=760530 fps=4130 q=-1.0 size=14525696kB time=03:31:15.64 bitrate=9387.6kbits/s speed=68.8x    frame=762811 fps=4132 q=-1.0 size=14568192kB time=03:31:53.66 bitrate=9387.0kbits/s speed=68.9x    frame=765227 fps=4133 q=-1.0 size=14613504kB time=03:32:33.93 bitrate=9386.4kbits/s speed=68.9x    frame=768121 fps=4138 q=-1.0 size=14656000kB time=03:33:22.16 bitrate=9378.3kbits/s speed=  69x    frame=769963 fps=4137 q=-1.0 size=14692352kB time=03:33:52.87 bitrate=9379.0kbits/s speed=68.9x    frame=772611 fps=4140 q=-1.0 size=14732032kB time=03:34:36.99 bitrate=9372.1kbits/s speed=  69x    frame=774915 fps=4141 q=-1.0 size=14774016kB time=03:35:15.39 bitrate=9370.9kbits/s speed=  69x    frame=777081 fps=4142 q=-1.0 size=14810624kB time=03:35:51.49 bitrate=9367.9kbits/s speed=  69x    frame=779190 fps=4142 q=-1.0 size=14848512kB time=03:36:26.64 bitrate=9366.5kbits/s speed=  69x    frame=781281 fps=4142 q=-1.0 size=14889728kB time=03:37:01.49 bitrate=9367.3kbits/s speed=  69x    frame=783509 fps=4143 q=-1.0 size=14932480kB time=03:37:38.63 bitrate=9367.5kbits/s speed=  69x    frame=786330 fps=4147 q=-1.0 size=14970112kB time=03:38:25.64 bitrate=9357.4kbits/s speed=69.1x    frame=788559 fps=4147 q=-1.0 size=15012352kB time=03:39:02.79 bitrate=9357.3kbits/s speed=69.1x    frame=790665 fps=4148 q=-1.0 size=15043328kB time=03:39:37.90 bitrate=9351.6kbits/s speed=69.1x    frame=792265 fps=4145 q=-1.0 size=15076352kB time=03:40:04.56 bitrate=9353.2kbits/s speed=69.1x    frame=793755 fps=4142 q=-1.0 size=15107072kB time=03:40:29.40 bitrate=9354.7kbits/s speed=  69x    frame=795334 fps=4139 q=-1.0 size=15138816kB time=03:40:55.72 bitrate=9355.7kbits/s speed=  69x    frame=797183 fps=4138 q=-1.0 size=15174400kB time=03:41:26.53 bitrate=9356.0kbits/s speed=  69x    frame=798995 fps=4137 q=-1.0 size=15209728kB time=03:41:56.74 bitrate=9356.5kbits/s speed=  69x    frame=801742 fps=4140 q=-1.0 size=15248384kB time=03:42:42.51 bitrate=9348.1kbits/s speed=  69x    frame=803731 fps=4140 q=-1.0 size=15286272kB time=03:43:15.67 bitrate=9348.2kbits/s speed=  69x    frame=805904 fps=4141 q=-1.0 size=15327232kB time=03:43:51.88 bitrate=9348.0kbits/s speed=  69x    frame=808086 fps=4141 q=-1.0 size=15369728kB time=03:44:28.24 bitrate=9348.6kbits/s speed=  69x    frame=810554 fps=4143 q=-1.0 size=15405568kB time=03:45:09.38 bitrate=9341.8kbits/s speed=69.1x    frame=813201 fps=4146 q=-1.0 size=15447552kB time=03:45:53.49 bitrate=9336.8kbits/s speed=69.1x    frame=815470 fps=4147 q=-1.0 size=15486464kB time=03:46:31.32 bitrate=9334.3kbits/s speed=69.1x    frame=817531 fps=4147 q=-1.0 size=15522304kB time=03:47:05.66 bitrate=9332.3kbits/s speed=69.1x    frame=820458 fps=4151 q=-1.0 size=15561216kB time=03:47:54.44 bitrate=9322.3kbits/s speed=69.2x    frame=822779 fps=4153 q=-1.0 size=15602688kB time=03:48:33.13 bitrate=9320.8kbits/s speed=69.2x    frame=825070 fps=4154 q=-1.0 size=15644672kB time=03:49:11.32 bitrate=9319.9kbits/s speed=69.2x    frame=827199 fps=4154 q=-1.0 size=15686912kB time=03:49:46.79 bitrate=9321.0kbits/s speed=69.2x    frame=829258 fps=4154 q=-1.0 size=15727360kB time=03:50:21.11 bitrate=9321.9kbits/s speed=69.2x    frame=832273 fps=4158 q=-1.0 size=15769600kB time=03:51:11.36 bitrate=9313.0kbits/s speed=69.3x    frame=834330 fps=4158 q=-1.0 size=15808000kB time=03:51:45.64 bitrate=9312.7kbits/s speed=69.3x    frame=836640 fps=4160 q=-1.0 size=15848704kB time=03:52:24.14 bitrate=9310.9kbits/s speed=69.3x    frame=838716 fps=4160 q=-1.0 size=15889408kB time=03:52:58.75 bitrate=9311.7kbits/s speed=69.3x    frame=841801 fps=4164 q=-1.0 size=15928064kB time=03:53:50.16 bitrate=9300.2kbits/s speed=69.4x    frame=844183 fps=4166 q=-1.0 size=15970816kB time=03:54:29.86 bitrate=9298.8kbits/s speed=69.4x    frame=846411 fps=4167 q=-1.0 size=16014080kB time=03:55:07.01 bitrate=9299.4kbits/s speed=69.4x    frame=848409 fps=4166 q=-1.0 size=16050688kB time=03:55:40.29 bitrate=9298.8kbits/s speed=69.4x    frame=851299 fps=4170 q=-1.0 size=16092160kB time=03:56:28.46 bitrate=9291.1kbits/s speed=69.5x    frame=853354 fps=4170 q=-1.0 size=16131840kB time=03:57:02.72 bitrate=9291.6kbits/s speed=69.5x    frame=855358 fps=4170 q=-1.0 size=16170240kB time=03:57:36.11 bitrate=9291.9kbits/s speed=69.5x    frame=857540 fps=4170 q=-1.0 size=16211968kB time=03:58:12.48 bitrate=9292.2kbits/s speed=69.5x    frame=859529 fps=4170 q=-1.0 size=16253440kB time=03:58:45.63 bitrate=9294.4kbits/s speed=69.5x    frame=862291 fps=4173 q=-1.0 size=16293376kB time=03:59:31.67 bitrate=9287.4kbits/s speed=69.5x    frame=864378 fps=4173 q=-1.0 size=16333312kB time=04:00:06.44 bitrate=9287.7kbits/s speed=69.5x    frame=866766 fps=4174 q=-1.0 size=16375552kB time=04:00:46.25 bitrate=9286.0kbits/s speed=69.6x    frame=869042 fps=4175 q=-1.0 size=16418304kB time=04:01:24.18 bitrate=9285.9kbits/s speed=69.6x    frame=871663 fps=4178 q=-1.0 size=16455168kB time=04:02:07.86 bitrate=9278.8kbits/s speed=69.6x    frame=873591 fps=4177 q=-1.0 size=16494080kB time=04:02:39.99 bitrate=9280.2kbits/s speed=69.6x    frame=875843 fps=4178 q=-1.0 size=16535808kB time=04:03:17.53 bitrate=9279.7kbits/s speed=69.6x    frame=878586 fps=4181 q=-1.0 size=16571136kB time=04:04:03.24 bitrate=9270.5kbits/s speed=69.7x    frame=881787 fps=4186 q=-1.0 size=16612352kB time=04:04:56.60 bitrate=9259.9kbits/s speed=69.8x    frame=883793 fps=4186 q=-1.0 size=16652288kB time=04:05:30.03 bitrate=9261.0kbits/s speed=69.8x    frame=886084 fps=4187 q=-1.0 size=16694272kB time=04:06:08.21 bitrate=9260.4kbits/s speed=69.8x    frame=888150 fps=4187 q=-1.0 size=16736256kB time=04:06:42.64 bitrate=9262.1kbits/s speed=69.8x    frame=890312 fps=4187 q=-1.0 size=16774144kB time=04:07:18.68 bitrate=9260.5kbits/s speed=69.8x    frame=893078 fps=4190 q=-1.0 size=16813312kB time=04:08:04.78 bitrate=9253.4kbits/s speed=69.8x    frame=895617 fps=4192 q=-1.0 size=16854528kB time=04:08:47.09 bitrate=9249.8kbits/s speed=69.9x    frame=897866 fps=4193 q=-1.0 size=16891648kB time=04:09:24.59 bitrate=9246.9kbits/s speed=69.9x    frame=900923 fps=4197 q=-1.0 size=16932864kB time=04:10:15.53 bitrate=9238.0kbits/s speed=  70x    frame=903007 fps=4197 q=-1.0 size=16972544kB time=04:10:50.26 bitrate=9238.3kbits/s speed=  70x    frame=905106 fps=4197 q=-1.0 size=17009664kB time=04:11:25.25 bitrate=9237.0kbits/s speed=  70x    frame=907322 fps=4198 q=-1.0 size=17050112kB time=04:12:02.18 bitrate=9236.4kbits/s speed=  70x    frame=909339 fps=4197 q=-1.0 size=17085952kB time=04:12:35.80 bitrate=9235.3kbits/s speed=  70x    frame=911451 fps=4197 q=-1.0 size=17125888kB time=04:13:11.00 bitrate=9235.4kbits/s speed=  70x    frame=913655 fps=4198 q=-1.0 size=17166336kB time=04:13:47.73 bitrate=9234.9kbits/s speed=  70x    frame=915683 fps=4198 q=-1.0 size=17202176kB time=04:14:21.53 bitrate=9233.7kbits/s speed=  70x    frame=917835 fps=4198 q=-1.0 size=17241088kB time=04:14:57.39 bitrate=9232.9kbits/s speed=  70x    frame=920033 fps=4198 q=-1.0 size=17279488kB time=04:15:34.04 bitrate=9231.3kbits/s speed=  70x    frame=922275 fps=4199 q=-1.0 size=17318144kB time=04:16:11.39 bitrate=9229.5kbits/s speed=  70x    frame=924540 fps=4200 q=-1.0 size=17358080kB time=04:16:49.15 bitrate=9228.1kbits/s speed=  70x    frame=926510 fps=4199 q=-1.0 size=17395200kB time=04:17:21.98 bitrate=9228.2kbits/s speed=  70x    frame=928839 fps=4200 q=-1.0 size=17435136kB time=04:18:00.79 bitrate=9226.2kbits/s speed=  70x    frame=931241 fps=4201 q=-1.0 size=17475328kB time=04:18:40.83 bitrate=9223.6kbits/s speed=  70x    frame=933314 fps=4201 q=-1.0 size=17514496kB time=04:19:15.38 bitrate=9223.7kbits/s speed=  70x    frame=935481 fps=4202 q=-1.0 size=17555968kB time=04:19:51.49 bitrate=9224.2kbits/s speed=  70x    frame=937671 fps=4202 q=-1.0 size=17597952kB time=04:20:27.99 bitrate=9224.6kbits/s speed=  70x    frame=939675 fps=4201 q=-1.0 size=17634304kB time=04:21:01.39 bitrate=9224.0kbits/s speed=  70x    frame=941873 fps=4202 q=-1.0 size=17676544kB time=04:21:38.03 bitrate=9224.5kbits/s speed=  70x    frame=943786 fps=4201 q=-1.0 size=17713664kB time=04:22:09.91 bitrate=9225.1kbits/s speed=  70x    frame=945884 fps=4201 q=-1.0 size=17754112kB time=04:22:44.88 bitrate=9225.7kbits/s speed=  70x    frame=947979 fps=4201 q=-1.0 size=17795328kB time=04:23:19.79 bitrate=9226.7kbits/s speed=  70x    frame=949947 fps=4200 q=-1.0 size=17832448kB time=04:23:52.59 bitrate=9226.7kbits/s speed=  70x    frame=952054 fps=4200 q=-1.0 size=17872640kB time=04:24:27.71 bitrate=9227.1kbits/s speed=  70x    frame=954153 fps=4200 q=-1.0 size=17913600kB time=04:25:02.70 bitrate=9227.9kbits/s speed=  70x    frame=956361 fps=4201 q=-1.0 size=17954816kB time=04:25:39.50 bitrate=9227.8kbits/s speed=  70x    frame=958523 fps=4201 q=-1.0 size=17996544kB time=04:26:15.53 bitrate=9228.3kbits/s speed=  70x    frame=960675 fps=4201 q=-1.0 size=18036992kB time=04:26:51.39 bitrate=9228.4kbits/s speed=  70x    frame=962575 fps=4201 q=-1.0 size=18073856kB time=04:27:23.07 bitrate=9229.0kbits/s speed=  70x    frame=964864 fps=4201 q=-1.0 size=18115840kB time=04:28:01.22 bitrate=9228.5kbits/s speed=  70x    frame=966829 fps=4201 q=-1.0 size=18153216kB time=04:28:33.96 bitrate=9228.7kbits/s speed=  70x    frame=969087 fps=4201 q=-1.0 size=18194944kB time=04:29:11.59 bitrate=9228.4kbits/s speed=  70x    frame=971314 fps=4202 q=-1.0 size=18236160kB time=04:29:48.71 bitrate=9228.1kbits/s speed=  70x    frame=973273 fps=4201 q=-1.0 size=18275072kB time=04:30:21.36 bitrate=9229.1kbits/s speed=  70x    frame=975506 fps=4202 q=-1.0 size=18317568kB time=04:30:58.58 bitrate=9229.4kbits/s speed=  70x    frame=977584 fps=4202 q=-1.0 size=18358528kB time=04:31:33.21 bitrate=9230.4kbits/s speed=  70x    frame=979971 fps=4203 q=-1.0 size=18400000kB time=04:32:12.99 bitrate=9228.7kbits/s speed=70.1x    frame=982159 fps=4203 q=-1.0 size=18441984kB time=04:32:49.46 bitrate=9229.2kbits/s speed=70.1x    frame=984343 fps=4204 q=-1.0 size=18483200kB time=04:33:25.87 bitrate=9229.3kbits/s speed=70.1x    frame=988033 fps=4210 q=-1.0 size=18524416kB time=04:34:27.37 bitrate=9215.3kbits/s speed=70.2x    frame=991354 fps=4216 q=-1.0 size=18567424kB time=04:35:22.71 bitrate=9205.8kbits/s speed=70.3x    frame=994542 fps=4220 q=-1.0 size=18602752kB time=04:36:15.85 bitrate=9193.7kbits/s speed=70.3x    frame=997143 fps=4222 q=-1.0 size=18646016kB time=04:36:59.19 bitrate=9191.1kbits/s speed=70.4x    frame=999709 fps=4224 q=-1.0 size=18686464kB time=04:37:41.97 bitrate=9187.4kbits/s speed=70.4x    frame=1002174 fps=4226 q=-1.0 size=18726144kB time=04:38:23.04 bitrate=9184.2kbits/s speed=70.4x    frame=1005051 fps=4229 q=-1.0 size=18768896kB time=04:39:10.99 bitrate=9178.8kbits/s speed=70.5x    frame=1007534 fps=4230 q=-1.0 size=18810368kB time=04:39:52.38 bitrate=9176.5kbits/s speed=70.5x    frame=1010084 fps=4232 q=-1.0 size=18852608kB time=04:40:34.88 bitrate=9173.8kbits/s speed=70.5x    frame=1012528 fps=4234 q=-1.0 size=18895616kB time=04:41:15.61 bitrate=9172.6kbits/s speed=70.6x    frame=1014911 fps=4235 q=-1.0 size=18936576kB time=04:41:55.33 bitrate=9170.9kbits/s speed=70.6x    frame=1017466 fps=4237 q=-1.0 size=18979072kB time=04:42:37.91 bitrate=9168.4kbits/s speed=70.6x    frame=1019813 fps=4237 q=-1.0 size=19018752kB time=04:43:17.03 bitrate=9166.4kbits/s speed=70.6x    frame=1021930 fps=4237 q=-1.0 size=19058176kB time=04:43:52.31 bitrate=9166.4kbits/s speed=70.6x    frame=1025620 fps=4244 q=-1.0 size=19100160kB time=04:44:53.81 bitrate=9153.5kbits/s speed=70.7x    frame=1027854 fps=4244 q=-1.0 size=19138816kB time=04:45:31.04 bitrate=9152.1kbits/s speed=70.7x    frame=1030203 fps=4245 q=-1.0 size=19180032kB time=04:46:10.20 bitrate=9150.9kbits/s speed=70.8x    frame=1032604 fps=4246 q=-1.0 size=19222528kB time=04:46:50.21 bitrate=9149.9kbits/s speed=70.8x    frame=1034966 fps=4247 q=-1.0 size=19263488kB time=04:47:29.58 bitrate=9148.4kbits/s speed=70.8x    frame=1037304 fps=4248 q=-1.0 size=19305984kB time=04:48:08.55 bitrate=9147.9kbits/s speed=70.8x    frame=1039543 fps=4249 q=-1.0 size=19345920kB time=04:48:45.86 bitrate=9147.1kbits/s speed=70.8x    frame=1041709 fps=4249 q=-1.0 size=19384576kB time=04:49:21.96 bitrate=9146.3kbits/s speed=70.8x    frame=1044035 fps=4250 q=-1.0 size=19426816kB time=04:50:00.73 bitrate=9145.9kbits/s speed=70.8x    frame=1046168 fps=4250 q=-1.0 size=19464960kB time=04:50:36.29 bitrate=9145.1kbits/s speed=70.8x    frame=1048367 fps=4250 q=-1.0 size=19506688kB time=04:51:12.93 bitrate=9145.5kbits/s speed=70.8x    frame=1051987 fps=4256 q=-1.0 size=19547136kB time=04:52:13.26 bitrate=9132.9kbits/s speed=70.9x    frame=1055290 fps=4261 q=-1.0 size=19583488kB time=04:53:08.31 bitrate=9121.3kbits/s speed=  71x    frame=1058254 fps=4264 q=-1.0 size=19625472kB time=04:53:57.71 bitrate=9115.2kbits/s speed=71.1x    frame=1060855 fps=4266 q=-1.0 size=19665920kB time=04:54:41.07 bitrate=9111.6kbits/s speed=71.1x    frame=1062999 fps=4266 q=-1.0 size=19703808kB time=04:55:16.79 bitrate=9110.8kbits/s speed=71.1x    frame=1065004 fps=4266 q=-1.0 size=19745024kB time=04:55:50.21 bitrate=9112.6kbits/s speed=71.1x    frame=1067186 fps=4266 q=-1.0 size=19783680kB time=04:56:26.58 bitrate=9111.8kbits/s speed=71.1x    frame=1069714 fps=4267 q=-1.0 size=19823104kB time=04:57:08.71 bitrate=9108.4kbits/s speed=71.1x    frame=1072113 fps=4268 q=-1.0 size=19865344kB time=04:57:48.69 bitrate=9107.4kbits/s speed=71.1x    frame=1073898 fps=4267 q=-1.0 size=19901184kB time=04:58:18.44 bitrate=9108.6kbits/s speed=71.1x    frame=1075899 fps=4266 q=-1.0 size=19939840kB time=04:58:51.80 bitrate=9109.4kbits/s speed=71.1x    frame=1078347 fps=4268 q=-1.0 size=19982336kB time=04:59:32.59 bitrate=9108.0kbits/s speed=71.1x    frame=1080710 fps=4269 q=-1.0 size=20024320kB time=05:00:11.98 bitrate=9107.2kbits/s speed=71.1x    frame=1083159 fps=4270 q=-1.0 size=20063232kB time=05:00:52.79 bitrate=9104.3kbits/s speed=71.2x    frame=1085193 fps=4269 q=-1.0 size=20098816kB time=05:01:26.69 bitrate=9103.3kbits/s speed=71.2x    frame=1087076 fps=4268 q=-1.0 size=20130560kB time=05:01:58.08 bitrate=9101.9kbits/s speed=71.1x    frame=1089037 fps=4268 q=-1.0 size=20164608kB time=05:02:30.76 bitrate=9100.9kbits/s speed=71.1x    frame=1090790 fps=4266 q=-1.0 size=20194560kB time=05:02:59.99 bitrate=9099.8kbits/s speed=71.1x    frame=1092704 fps=4265 q=-1.0 size=20232448kB time=05:03:31.88 bitrate=9100.9kbits/s speed=71.1x    frame=1094623 fps=4265 q=-1.0 size=20267776kB time=05:04:03.86 bitrate=9100.8kbits/s speed=71.1x    frame=1096744 fps=4265 q=-1.0 size=20304640kB time=05:04:39.21 bitrate=9099.7kbits/s speed=71.1x    frame=1098912 fps=4265 q=-1.0 size=20342784kB time=05:05:15.35 bitrate=9098.8kbits/s speed=71.1x    frame=1100945 fps=4264 q=-1.0 size=20382208kB time=05:05:49.23 bitrate=9099.6kbits/s speed=71.1x    frame=1103347 fps=4265 q=-1.0 size=20422656kB time=05:06:29.27 bitrate=9097.8kbits/s speed=71.1x    frame=1105724 fps=4266 q=-1.0 size=20463360kB time=05:07:08.88 bitrate=9096.4kbits/s speed=71.1x    frame=1107711 fps=4266 q=-1.0 size=20503040kB time=05:07:41.99 bitrate=9097.7kbits/s speed=71.1x    frame=1110266 fps=4267 q=-1.0 size=20542208kB time=05:08:24.58 bitrate=9094.1kbits/s speed=71.1x    frame=1112360 fps=4267 q=-1.0 size=20583168kB time=05:08:59.48 bitrate=9095.0kbits/s speed=71.1x    frame=1114602 fps=4268 q=-1.0 size=20624896kB time=05:09:36.84 bitrate=9095.1kbits/s speed=71.1x    frame=1117911 fps=4272 q=-1.0 size=20666112kB time=05:10:31.99 bitrate=9086.3kbits/s speed=71.2x    frame=1120008 fps=4272 q=-1.0 size=20707584kB time=05:11:06.94 bitrate=9087.5kbits/s speed=71.2x    frame=1122376 fps=4273 q=-1.0 size=20744704kB time=05:11:46.41 bitrate=9084.6kbits/s speed=71.2x    frame=1124484 fps=4273 q=-1.0 size=20786176kB time=05:12:21.55 bitrate=9085.7kbits/s speed=71.2x    frame=1126753 fps=4273 q=-1.0 size=20827648kB time=05:12:59.37 bitrate=9085.5kbits/s speed=71.2x    frame=1128745 fps=4273 q=-1.0 size=20864768kB time=05:13:32.56 bitrate=9085.6kbits/s speed=71.2x    frame=1131002 fps=4273 q=-1.0 size=20907008kB time=05:14:10.18 bitrate=9085.9kbits/s speed=71.2x    frame=1133048 fps=4273 q=-1.0 size=20947712kB time=05:14:44.29 bitrate=9087.1kbits/s speed=71.2x    frame=1135542 fps=4274 q=-1.0 size=20989440kB time=05:15:25.84 bitrate=9085.2kbits/s speed=71.2x    frame=1137663 fps=4274 q=-1.0 size=21031936kB time=05:16:01.19 bitrate=9086.6kbits/s speed=71.2x    frame=1139744 fps=4274 q=-1.0 size=21069312kB time=05:16:35.88 bitrate=9086.2kbits/s speed=71.2x    frame=1141839 fps=4274 q=-1.0 size=21110272kB time=05:17:10.80 bitrate=9087.1kbits/s speed=71.2x    frame=1145191 fps=4278 q=-1.0 size=21152000kB time=05:18:06.66 bitrate=9078.4kbits/s speed=71.3x    frame=1147603 fps=4279 q=-1.0 size=21189888kB time=05:18:46.87 bitrate=9075.6kbits/s speed=71.3x    frame=1150011 fps=4280 q=-1.0 size=21231872kB time=05:19:27.00 bitrate=9074.5kbits/s speed=71.3x    frame=1152312 fps=4281 q=-1.0 size=21272320kB time=05:20:05.35 bitrate=9073.7kbits/s speed=71.3x    frame=1155812 fps=4286 q=-1.0 size=21312512kB time=05:21:03.68 bitrate=9063.3kbits/s speed=71.4x    frame=1158129 fps=4286 q=-1.0 size=21357056kB time=05:21:42.29 bitrate=9064.1kbits/s speed=71.4x    frame=1160368 fps=4287 q=-1.0 size=21398784kB time=05:22:19.61 bitrate=9064.2kbits/s speed=71.4x    frame=1163686 fps=4291 q=-1.0 size=21442304kB time=05:23:14.92 bitrate=9056.8kbits/s speed=71.5x    frame=1166788 fps=4295 q=-1.0 size=21484800kB time=05:24:06.61 bitrate=9050.6kbits/s speed=71.6x    frame=1169234 fps=4296 q=-1.0 size=21521408kB time=05:24:47.38 bitrate=9047.1kbits/s speed=71.6x    frame=1171835 fps=4297 q=-1.0 size=21563904kB time=05:25:30.73 bitrate=9044.8kbits/s speed=71.6x    frame=1174095 fps=4298 q=-1.0 size=21603328kB time=05:26:08.40 bitrate=9043.9kbits/s speed=71.6x    frame=1177147 fps=4301 q=-1.0 size=21641728kB time=05:26:59.26 bitrate=9036.5kbits/s speed=71.7x    frame=1179530 fps=4302 q=-1.0 size=21680896kB time=05:27:38.99 bitrate=9034.5kbits/s speed=71.7x    frame=1182099 fps=4303 q=-1.0 size=21723392kB time=05:28:21.79 bitrate=9032.6kbits/s speed=71.7x    frame=1184685 fps=4305 q=-1.0 size=21765632kB time=05:29:04.89 bitrate=9030.4kbits/s speed=71.8x    frame=1187031 fps=4306 q=-1.0 size=21803776kB time=05:29:44.00 bitrate=9028.3kbits/s speed=71.8x    frame=1189406 fps=4307 q=-1.0 size=21846528kB time=05:30:23.58 bitrate=9028.0kbits/s speed=71.8x    frame=1191867 fps=4308 q=-1.0 size=21888000kB time=05:31:04.59 bitrate=9026.4kbits/s speed=71.8x    frame=1194459 fps=4309 q=-1.0 size=21932288kB time=05:31:47.80 bitrate=9025.1kbits/s speed=71.8x    frame=1196730 fps=4310 q=-1.0 size=21972736kB time=05:32:25.64 bitrate=9024.6kbits/s speed=71.8x    frame=1199712 fps=4313 q=-1.0 size=22012928kB time=05:33:15.34 bitrate=9018.6kbits/s speed=71.9x    frame=1201856 fps=4313 q=-1.0 size=22054656kB time=05:33:51.08 bitrate=9019.6kbits/s speed=71.9x    frame=1205548 fps=4318 q=-1.0 size=22095104kB time=05:34:52.61 bitrate=9008.4kbits/s speed=  72x    frame=1207620 fps=4318 q=-1.0 size=22136576kB time=05:35:27.14 bitrate=9009.9kbits/s speed=  72x    frame=1210892 fps=4322 q=-1.0 size=22179840kB time=05:36:21.68 bitrate=9003.1kbits/s speed=  72x    frame=1213012 fps=4322 q=-1.0 size=22217984kB time=05:36:57.01 bitrate=9002.8kbits/s speed=  72x    frame=1215593 fps=4323 q=-1.0 size=22262528kB time=05:37:40.03 bitrate=9001.7kbits/s speed=72.1x    frame=1217737 fps=4323 q=-1.0 size=22305024kB time=05:38:15.76 bitrate=9003.0kbits/s speed=  72x    frame=1219531 fps=4322 q=-1.0 size=22341632kB time=05:38:45.67 bitrate=9004.5kbits/s speed=  72x    frame=1222990 fps=4326 q=-1.0 size=22382336kB time=05:39:43.31 bitrate=8995.4kbits/s speed=72.1x    frame=1225189 fps=4326 q=-1.0 size=22419712kB time=05:40:19.96 bitrate=8994.3kbits/s speed=72.1x    frame=1227942 fps=4328 q=-1.0 size=22458880kB time=05:41:05.86 bitrate=8989.8kbits/s speed=72.1x    frame=1230406 fps=4329 q=-1.0 size=22499584kB time=05:41:46.91 bitrate=8988.0kbits/s speed=72.2x    frame=1232997 fps=4331 q=-1.0 size=22539520kB time=05:42:30.09 bitrate=8985.1kbits/s speed=72.2x    frame=1235185 fps=4331 q=-1.0 size=22579968kB time=05:43:06.56 bitrate=8985.2kbits/s speed=72.2x    frame=1237315 fps=4331 q=-1.0 size=22621440kB time=05:43:42.06 bitrate=8986.2kbits/s speed=72.2x    frame=1239306 fps=4330 q=-1.0 size=22662656kB time=05:44:15.25 bitrate=8988.1kbits/s speed=72.2x    frame=1241385 fps=4330 q=-1.0 size=22703872kB time=05:44:49.89 bitrate=8989.4kbits/s speed=72.2x    frame=1243315 fps=4329 q=-1.0 size=22742016kB time=05:45:22.06 bitrate=8990.5kbits/s speed=72.2x    frame=1245312 fps=4329 q=-1.0 size=22780928kB time=05:45:55.34 bitrate=8991.5kbits/s speed=72.1x    frame=1247464 fps=4329 q=-1.0 size=22822656kB time=05:46:31.21 bitrate=8992.4kbits/s speed=72.1x    frame=1250312 fps=4331 q=-1.0 size=22858752kB time=05:47:18.68 bitrate=8986.1kbits/s speed=72.2x    frame=1253097 fps=4333 q=-1.0 size=22899456kB time=05:48:05.10 bitrate=8982.1kbits/s speed=72.2x    frame=1255158 fps=4333 q=-1.0 size=22938880kB time=05:48:39.44 bitrate=8982.8kbits/s speed=72.2x    frame=1258288 fps=4336 q=-1.0 size=22981376kB time=05:49:31.61 bitrate=8977.1kbits/s speed=72.3x    frame=1261819 fps=4341 q=-1.0 size=23022336kB time=05:50:30.46 bitrate=8967.9kbits/s speed=72.3x    frame=1263968 fps=4341 q=-1.0 size=23064320kB time=05:51:06.28 bitrate=8969.0kbits/s speed=72.3x    frame=1266093 fps=4340 q=-1.0 size=23106304kB time=05:51:41.69 bitrate=8970.2kbits/s speed=72.3x    frame=1268990 fps=4343 q=-1.0 size=23148544kB time=05:52:29.98 bitrate=8966.1kbits/s speed=72.4x    frame=1271241 fps=4343 q=-1.0 size=23187200kB time=05:53:07.49 bitrate=8965.2kbits/s speed=72.4x    frame=1273739 fps=4344 q=-1.0 size=23227136kB time=05:53:49.14 bitrate=8963.0kbits/s speed=72.4x    frame=1276791 fps=4347 q=-1.0 size=23266816kB time=05:54:39.99 bitrate=8956.9kbits/s speed=72.5x    frame=1279755 fps=4350 q=-1.0 size=23300352kB time=05:55:29.41 bitrate=8949.0kbits/s speed=72.5x    frame=1283055 fps=4354 q=-1.0 size=23340032kB time=05:56:24.39 bitrate=8941.2kbits/s speed=72.6x    frame=1286561 fps=4358 q=-1.0 size=23378688kB time=05:57:22.84 bitrate=8931.6kbits/s speed=72.6x    frame=1289163 fps=4360 q=-1.0 size=23419392kB time=05:58:06.19 bitrate=8929.1kbits/s speed=72.7x    frame=1291537 fps=4360 q=-1.0 size=23461376kB time=05:58:45.76 bitrate=8928.6kbits/s speed=72.7x    frame=1293791 fps=4361 q=-1.0 size=23498240kB time=05:59:23.33 bitrate=8927.1kbits/s speed=72.7x    frame=1296305 fps=4362 q=-1.0 size=23540224kB time=06:00:05.23 bitrate=8925.7kbits/s speed=72.7x    frame=1298779 fps=4363 q=-1.0 size=23581952kB time=06:00:46.46 bitrate=8924.5kbits/s speed=72.7x    frame=1301153 fps=4363 q=-1.0 size=23621376kB time=06:01:26.03 bitrate=8923.1kbits/s speed=72.7x    frame=1303498 fps=4364 q=-1.0 size=23662080kB time=06:02:05.12 bitrate=8922.4kbits/s speed=72.7x    frame=1306002 fps=4365 q=-1.0 size=23701760kB time=06:02:46.85 bitrate=8920.2kbits/s speed=72.7x    frame=1308260 fps=4365 q=-1.0 size=23741440kB time=06:03:24.48 bitrate=8919.7kbits/s speed=72.8x    frame=1310744 fps=4366 q=-1.0 size=23783424kB time=06:04:05.89 bitrate=8918.6kbits/s speed=72.8x    frame=1313359 fps=4368 q=-1.0 size=23820288kB time=06:04:49.47 bitrate=8914.6kbits/s speed=72.8x    frame=1315510 fps=4367 q=-1.0 size=23861248kB time=06:05:25.31 bitrate=8915.3kbits/s speed=72.8x    frame=1317710 fps=4368 q=-1.0 size=23902976kB time=06:06:01.98 bitrate=8916.0kbits/s speed=72.8x    frame=1319613 fps=4367 q=-1.0 size=23938816kB time=06:06:33.71 bitrate=8916.5kbits/s speed=72.8x    frame=1321801 fps=4367 q=-1.0 size=23980544kB time=06:07:10.16 bitrate=8917.3kbits/s speed=72.8x    frame=1324048 fps=4367 q=-1.0 size=24020224kB time=06:07:47.61 bitrate=8916.9kbits/s speed=72.8x    frame=1326056 fps=4366 q=-1.0 size=24058112kB time=06:08:21.08 bitrate=8917.4kbits/s speed=72.8x    frame=1328255 fps=4366 q=-1.0 size=24100096kB time=06:08:57.73 bitrate=8918.2kbits/s speed=72.8x    frame=1330349 fps=4366 q=-1.0 size=24140288kB time=06:09:32.63 bitrate=8919.0kbits/s speed=72.8x    frame=1332399 fps=4366 q=-1.0 size=24182016kB time=06:10:06.79 bitrate=8920.7kbits/s speed=72.8x    frame=1336100 fps=4370 q=-1.0 size=24221696kB time=06:11:08.48 bitrate=8910.5kbits/s speed=72.8x    frame=1338621 fps=4372 q=-1.0 size=24260352kB time=06:11:50.49 bitrate=8908.0kbits/s speed=72.9x    frame=1340992 fps=4372 q=-1.0 size=24301312kB time=06:12:30.01 bitrate=8907.2kbits/s speed=72.9x    frame=1343812 fps=4374 q=-1.0 size=24341504kB time=06:13:17.01 bitrate=8903.2kbits/s speed=72.9x    frame=1346185 fps=4375 q=-1.0 size=24377856kB time=06:13:56.56 bitrate=8900.8kbits/s speed=72.9x    frame=1348731 fps=4376 q=-1.0 size=24420096kB time=06:14:39.00 bitrate=8899.4kbits/s speed=72.9x    frame=1350994 fps=4376 q=-1.0 size=24456960kB time=06:15:16.71 bitrate=8897.9kbits/s speed=72.9x    frame=1353613 fps=4378 q=-1.0 size=24498432kB time=06:16:00.36 bitrate=8895.7kbits/s speed=  73x    frame=1355760 fps=4377 q=-1.0 size=24539136kB time=06:16:36.14 bitrate=8896.4kbits/s speed=  73x    frame=1358712 fps=4380 q=-1.0 size=24578048kB time=06:17:25.34 bitrate=8891.2kbits/s speed=  73x    frame=1362208 fps=4384 q=-1.0 size=24618496kB time=06:18:23.61 bitrate=8882.9kbits/s speed=73.1x    frame=1364547 fps=4385 q=-1.0 size=24660224kB time=06:19:02.59 bitrate=8882.7kbits/s speed=73.1x    frame=1366787 fps=4385 q=-1.0 size=24697600kB time=06:19:39.93 bitrate=8881.6kbits/s speed=73.1x    frame=1369085 fps=4385 q=-1.0 size=24740096kB time=06:20:18.24 bitrate=8882.0kbits/s speed=73.1x    frame=1372311 fps=4388 q=-1.0 size=24777984kB time=06:21:11.99 bitrate=8874.7kbits/s speed=73.1x    frame=1374842 fps=4389 q=-1.0 size=24816896kB time=06:21:54.18 bitrate=8872.2kbits/s speed=73.2x    frame=1377501 fps=4391 q=-1.0 size=24857600kB time=06:22:38.51 bitrate=8869.6kbits/s speed=73.2x    frame=1379947 fps=4392 q=-1.0 size=24894720kB time=06:23:19.26 bitrate=8867.1kbits/s speed=73.2x    frame=1382610 fps=4393 q=-1.0 size=24933632kB time=06:24:03.64 bitrate=8863.9kbits/s speed=73.2x    frame=1384918 fps=4394 q=-1.0 size=24970496kB time=06:24:42.11 bitrate=8862.2kbits/s speed=73.2x    frame=1388265 fps=4397 q=-1.0 size=25010944kB time=06:25:37.89 bitrate=8855.2kbits/s speed=73.3x    frame=1390529 fps=4397 q=-1.0 size=25051392kB time=06:26:15.64 bitrate=8855.0kbits/s speed=73.3x    frame=1392727 fps=4397 q=-1.0 size=25088512kB time=06:26:52.26 bitrate=8854.2kbits/s speed=73.3x    frame=1394922 fps=4397 q=-1.0 size=25129984kB time=06:27:28.84 bitrate=8854.8kbits/s speed=73.3x    frame=1397467 fps=4398 q=-1.0 size=25167104kB time=06:28:11.26 bitrate=8851.8kbits/s speed=73.3x    frame=1399206 fps=4397 q=-1.0 size=25199616kB time=06:28:40.26 bitrate=8852.2kbits/s speed=73.3x    frame=1402532 fps=4401 q=-1.0 size=25231872kB time=06:29:35.68 bitrate=8842.5kbits/s speed=73.3x    frame=1404260 fps=4399 q=-1.0 size=25262592kB time=06:30:04.48 bitrate=8842.4kbits/s speed=73.3x    frame=1406239 fps=4398 q=-1.0 size=25296384kB time=06:30:37.46 bitrate=8841.7kbits/s speed=73.3x    frame=1408916 fps=4400 q=-1.0 size=25334784kB time=06:31:22.09 bitrate=8838.3kbits/s speed=73.3x    frame=1411411 fps=4401 q=-1.0 size=25371392kB time=06:32:03.66 bitrate=8835.5kbits/s speed=73.3x    frame=1413883 fps=4402 q=-1.0 size=25410560kB time=06:32:44.86 bitrate=8833.6kbits/s speed=73.4x    frame=1416248 fps=4402 q=-1.0 size=25446656kB time=06:33:24.28 bitrate=8831.4kbits/s speed=73.4x    frame=1418419 fps=4402 q=-1.0 size=25489408kB time=06:34:00.47 bitrate=8832.7kbits/s speed=73.4x    frame=1420885 fps=4403 q=-1.0 size=25531136kB time=06:34:41.56 bitrate=8831.8kbits/s speed=73.4x    frame=1422918 fps=4402 q=-1.0 size=25569024kB time=06:35:15.44 bitrate=8832.3kbits/s speed=73.4x    frame=1425574 fps=4404 q=-1.0 size=25609728kB time=06:35:59.71 bitrate=8829.9kbits/s speed=73.4x    frame=1431968 fps=4417 q=-1.0 size=25649664kB time=06:37:46.28 bitrate=8804.1kbits/s speed=73.6x    frame=1437238 fps=4426 q=-1.0 size=25685760kB time=06:39:14.11 bitrate=8784.2kbits/s speed=73.8x    frame=1443203 fps=4438 q=-1.0 size=25726976kB time=06:40:53.53 bitrate=8761.9kbits/s speed=  74x    frame=1449234 fps=4449 q=-1.0 size=25764352kB time=06:42:34.05 bitrate=8738.1kbits/s speed=74.2x    frame=1450352 fps=4451 q=-1.0 Lsize=25770536kB time=06:42:52.68 bitrate=8733.5kbits/s speed=74.2x    
video:25143425kB audio:578550kB subtitle:0kB other streams:0kB global headers:0kB muxing overhead: 0.188792%
